<?xml version="1.0" encoding="utf-8"?>
<!-- Generator: Adobe Illustrator 22.1.0, SVG Export Plug-In . SVG Version: 6.00 Build 0)  -->
<svg version="1.1" id="图层_1" xmlns="http://www.w3.org/2000/svg" xmlns:xlink="http://www.w3.org/1999/xlink" x="0px" y="0px"
	 viewBox="0 0 595.3 136.1" style="enable-background:new 0 0 595.3 136.1;" xml:space="preserve">
<style type="text/css">
	.st0{fill:#7F4F21;}
	.st1{fill:#F7F8F8;}
	.st2{fill:#C9A063;}
	.st3{fill:#C79F00;}
</style>
<g>
	<path class="st0" d="M207.5,53.4c-0.2,0.8-0.7,1.1-1.5,1c-0.2,0-0.6,0.1-1.3,0.3c-0.7,0.2-1.5,0.5-2.4,0.8c0,0.3,0,0.9,0,1.8
		c0,0.9,0,1.9,0.1,3s0.1,2.2,0.1,3.2c0,1.1,0.1,1.8,0.1,2.4c0.1,1.1,0.1,2.1,0.1,3c0,0.9,0,1.8-0.1,2.6c-0.1,0.8-0.1,1.7-0.2,2.5
		c-0.1,0.8-0.2,1.7-0.3,2.6c-0.2,1.4-0.4,2.1-0.8,2.1c-0.3,0-0.6-0.8-0.8-2.3c-0.2-1.7-0.4-3.4-0.6-5.2c-0.2-1.8-0.4-3.5-0.5-5.3
		c-0.1-1.7-0.3-3.3-0.3-4.9c-0.1-1.6-0.1-3-0.1-4.2c-0.4,0.2-0.8,0.4-1.4,0.7c-0.5,0.3-1.1,0.6-1.7,0.9c-0.6,0.3-1.1,0.7-1.7,1
		c-0.5,0.4-1,0.7-1.4,1c-0.1,1.3-0.2,2.6-0.3,3.9c-0.2,1.3-0.3,2.4-0.5,3.2c-0.2,0.6-0.4,1-0.6,1c-0.2,0-0.4-0.1-0.6-0.4
		c-0.3-0.9-0.7-1.6-1-2.2c-0.3-0.5-0.5-0.9-0.6-1.2c-0.1-0.3-0.1-0.7-0.1-1c0-0.3,0.1-0.7,0.1-1.2c0-0.6,0-1.2,0-1.8
		c-0.2,0.9-0.5,1.8-0.8,2.7c-0.3,0.9-0.7,1.8-1,2.6c0.2,0.8,0,1.4-0.6,1.7c-0.5,0.3-1.4,0.2-2.7-0.4c0.1,0.6,0.1,1.5,0,2.4
		c0,1-0.1,2-0.2,3c-0.2,1.7-0.7,1.7-1.5,0c-0.4-0.8-0.7-1.4-1.1-1.9c-0.3-0.5-0.8-1-1.5-1.6c-0.6,0.6-1.1,1.1-1.6,1.4
		c-0.4,0.3-0.9,0.3-1.2,0.2c-0.4-0.1-0.7-0.5-1-1.1c-0.3-0.6-0.7-1.5-1-2.6c-0.3,0.2-0.6,0.4-1,0.6c-0.4,0.3-0.7,0.5-1,0.7
		s-0.6,0.5-0.9,0.7c-0.3,0.2-0.4,0.4-0.5,0.5c-0.2,0.2-0.3,0.3-0.4,0.4c-0.1,0.1-0.3,0.2-0.5,0.2c-0.2,0-0.4,0-0.7,0
		c-0.3-0.1-0.7-0.2-1.1-0.3c-0.6-0.2-1.1-0.4-1.4-0.5c-0.3-0.1-0.6-0.2-0.7-0.4s-0.2-0.2-0.3-0.4c0-0.1,0-0.3,0-0.5
		c0.1-0.5,0.2-0.9,0.4-1c0.1-0.1,0.3-0.2,0.6-0.3c0.4-0.1,0.9-0.2,1.5-0.6c0.6-0.3,1.3-0.8,2.2-1.4c0.4-0.3,1.1-0.7,2.1-1.2
		c1-0.5,2-1.1,3.1-1.7c1.1-0.6,2.1-1.2,3-1.7c0.9-0.5,1.6-0.9,2-1.2c-1.3,0.2-2.3,0.3-3,0.4c-0.7,0.1-1.3,0.2-1.7,0.2
		c-0.4,0-0.7,0.1-1,0c-0.2,0-0.6,0-0.9-0.1c-0.5-0.1-0.9-0.2-1.2-0.3c-0.2-0.1-0.4-0.4-0.4-0.7c0-0.4,0.1-0.7,0.2-0.8
		c0.1-0.1,0.3-0.2,0.6-0.3c0.2,0,0.5-0.1,0.9-0.3c0.4-0.2,1-0.4,1.6-0.6c0.6-0.2,1.2-0.5,1.9-0.8c0.7-0.3,1.4-0.6,2-0.9
		c0-0.5,0.1-0.8,0.2-1c0.1-0.2,0.5-0.3,1-0.5c0.3-0.1,0.5-0.2,0.8-0.4c0.3-0.2,0.6-0.5,0.9-0.8s0.5-0.6,0.6-0.8
		c0.2-0.3,0.2-0.5,0.2-0.6c-0.5,0-1.1,0.1-1.7,0.4c-0.6,0.3-1.1,0.6-1.6,1c-0.5,0.4-1,0.8-1.4,1.2c-0.4,0.4-0.8,0.8-1.1,1.2
		c-0.5,0.6-1,0.9-1.4,0.7c-0.4-0.2-0.7-0.9-0.9-2.1c-0.1-0.5-0.1-0.9,0-1.3c0.1-0.4,0.3-0.9,0.8-1.5c-0.9,0.3-1.8,0.2-2.5,0
		c-0.7-0.3-1.5-1-2.3-2.2c-0.5-0.7-0.7-1.2-0.6-1.4c0.1-0.2,0.5-0.2,1.1-0.1c0.2,0.1,0.5,0.1,0.7,0.1c0.2,0,0.6-0.1,1-0.2
		c0.4-0.1,1-0.3,1.8-0.6c0.7-0.3,1.7-0.7,2.9-1.2c-0.5-0.3-0.8-0.5-0.8-0.7s0.2-0.3,0.7-0.5c0.4-0.1,0.8-0.3,1.4-0.6
		c0.6-0.3,1-0.6,1.3-0.9c-0.3-0.7-0.6-1.3-0.9-1.8c-0.3-0.5-0.5-0.8-0.7-1c-0.2-0.2-0.3-0.4-0.5-0.7c-0.1-0.3-0.2-0.5-0.2-0.8
		c0-0.2,0.1-0.4,0.3-0.4c0.2,0,0.5,0,0.8,0.2c0.3,0.2,0.6,0.3,1.1,0.4c0.5,0.1,0.9,0.2,1.4,0.2c1.2,0.2,2.2,0.6,2.8,1.4
		s1.1,1.7,1.4,2.9c1.4-0.2,2.2,0.3,2.3,1.4c0,0.4,0,0.7-0.2,0.9c-0.2,0.2-0.6,0.5-1.3,0.9c-0.4,0.2-0.7,0.4-1.1,0.6
		c-0.4,0.2-0.7,0.5-1.1,0.7c-0.3,0.3-0.6,0.5-0.9,0.7c-0.3,0.2-0.5,0.5-0.6,0.6c0.6-0.1,1.1-0.2,1.5-0.2c0.4,0,0.8,0.1,1.3,0.4
		c0.4-0.3,0.7-0.4,0.9-0.6c0.3-0.1,0.6-0.2,1.1-0.3c1-0.8,1.9-1.6,2.7-2.4c0.8-0.8,1.6-1.6,2.3-2.3c0.7-0.7,1.2-1.3,1.6-1.8
		s0.6-0.8,0.7-1c-1,0.4-1.6,0.6-1.8,0.5c-0.2-0.1-0.1-0.3,0.3-0.7c1.2-1.2,2.4-1.5,3.4-0.9c0.7,0.4,1.2,0.8,1.7,1.3
		c0.4,0.5,0.7,1,0.7,1.4c0,0.3-0.2,0.7-0.6,1.2c-0.4,0.6-1,1.2-1.8,1.9c-0.8,0.7-1.6,1.4-2.7,2.2c-1,0.7-2.2,1.4-3.4,2
		c0,0.3,0.1,0.5,0.2,0.8c0.1,0.3,0.3,0.5,0.5,0.6c0.5,0.2,0.8,0.5,0.9,1.1c0.1,0.6,0,1.1-0.4,1.6c-0.2,0.3-0.3,0.6-0.3,1
		s-0.1,0.9,0,1.3c0.5-0.3,1-0.6,1.6-0.8c0.6-0.3,1.1-0.5,1.7-0.8c0.5-0.3,1.1-0.5,1.6-0.7c0.5-0.2,0.9-0.4,1.2-0.6
		c0-0.4-0.1-0.8-0.4-1.2c-0.1-0.2-0.2-0.4-0.1-0.6c0.1-0.3,0.2-0.5,0.4-0.7c0.2-0.2,0.5-0.4,0.7-0.6c0.3-0.2,0.6-0.2,1-0.2
		c0.4,0,0.8,0.2,1.2,0.6c0.4,0.4,0.6,0.8,0.8,1.3c0.6-0.3,1.2-0.5,1.8-0.5c0.6,0,1,0,1.4,0.2c0.5,0.3,0.9,0.5,1.2,0.8
		c0.3,0.2,0.5,0.4,0.6,0.6c0.1,0.2,0.2,0.4,0.2,0.5C207.5,53.1,207.5,53.2,207.5,53.4z M181.9,47.3c-0.1,0-0.4,0.2-0.9,0.4
		c-0.5,0.2-1,0.5-1.5,0.8c-0.5,0.3-1,0.6-1.4,0.8c-0.4,0.3-0.7,0.5-0.8,0.6c0.1,0.1,0.2,0.2,0.4,0.2c0.2,0,0.3,0,0.5-0.1
		c0.5-0.2,0.9-0.4,1.2-0.6c0.3-0.2,0.6-0.4,0.9-0.6c0.3-0.2,0.5-0.4,0.8-0.6C181.3,47.9,181.6,47.7,181.9,47.3z M181.3,62.9
		c-0.6,0.3-1.2,0.6-1.9,0.9c-0.7,0.3-1.2,0.7-1.7,1c0.1,0.5,0.2,0.9,0.5,1.2c0.6-0.2,1.2-0.4,1.8-0.7c0.6-0.3,1-0.6,1.2-0.8
		c0.2-0.2,0.2-0.5,0.2-0.8C181.4,63.4,181.4,63.2,181.3,62.9z M181.3,67.5c-0.3,0.1-0.4,0.2-0.6,0.3c-0.1,0.1-0.2,0.4-0.3,0.9
		c0.2,0.3,0.5,0.4,0.8,0.3c0.1-0.2,0.1-0.4,0.1-0.7C181.4,67.9,181.4,67.7,181.3,67.5z M188.1,60.6c-0.6,0.1-1.2,0.2-1.9,0.4
		s-1.3,0.4-1.9,0.7c0,0.2,0,0.4,0,0.6c0,0.3,0,0.5,0,0.8c0,0.3,0,0.5,0.1,0.8c0,0.3,0.1,0.4,0.1,0.5c0.3,0.1,0.6,0.1,1,0.1
		c0.6-0.6,1.2-1.2,1.7-2C187.7,61.8,188,61.1,188.1,60.6z M189.8,53.5c0-0.7-0.1-1.2-0.2-1.4c-0.1-0.2-0.3-0.5-0.6-0.7
		c-0.3,0.7-0.8,1.2-1.6,1.5c-0.4,0.1-0.6,0.2-0.8,0.4c-0.1,0.1-0.2,0.3-0.3,0.5c0.8,0.1,1.3,0.2,1.5,0.4c0.2,0.2,0.3,0.6,0.3,1.2
		c0,0.4-0.1,0.7-0.2,0.8c-0.1,0.2-0.5,0.4-1.1,0.6c-0.6,0.2-1,0.4-1.2,0.6c-0.2,0.2-0.4,0.4-0.4,0.6c0.6-0.1,1.2-0.2,1.6-0.3
		c0.4-0.1,0.8-0.1,1.1-0.1c0.3,0,0.5,0.1,0.8,0.1c0.2,0.1,0.5,0.2,0.8,0.4c0.2-0.4,0.3-0.9,0.5-1.6
		C189.9,55.9,189.9,54.9,189.8,53.5z"/>
	<path class="st0" d="M254.5,47.2c0,0.4-0.1,0.7-0.4,0.9c-0.3,0.2-0.9,0.1-1.9-0.1c-0.5-0.1-1-0.2-1.4-0.3c-0.4,0-0.8-0.1-1.2,0
		c-0.4,0-0.8,0.1-1.2,0.2c-0.4,0.1-0.9,0.2-1.5,0.3c0.3,0.4,0.5,1,0.6,1.5c0.2,0.6,0.2,1.1,0.2,1.5c-0.1,1.4-0.1,2.7-0.1,4
		c0,1.2,0,2.6,0,4c0,1.4,0.1,3.1,0.1,4.9c0.1,1.8,0.1,4,0.2,6.7c0,1.1,0,2.1-0.2,2.9c-0.1,0.8-0.4,1.6-0.7,2.5
		c-0.3,0.7-0.6,1.1-0.9,1.2c-0.3,0-0.6-0.2-1-0.6c-0.3-0.3-0.7-0.7-1.2-1.1s-1.1-0.9-1.9-1.5c-0.8-0.6-1.7-1.3-2.9-2
		c-1.1-0.8-2.4-1.7-4-2.8c-0.2-0.2-0.3-0.3-0.1-0.3c0.1-0.1,0.4,0,0.7,0.1c0.4,0.2,1,0.4,1.6,0.6c0.6,0.2,1.2,0.4,1.9,0.5
		c0.6,0.1,1.2,0.2,1.8,0.3c0.6,0.1,1,0.1,1.3,0c0.9-0.1,1.5-0.2,1.7-0.4c0.3-0.2,0.4-0.6,0.5-1.2c0.1-0.8,0.2-1.6,0.3-2.5
		c0.1-0.9,0.1-1.9,0.1-3.1c0-1.2,0-2.6-0.1-4.3c-0.1-1.7-0.2-3.7-0.3-6.2c-0.1-1-0.1-1.8-0.2-2.3c-0.1-0.5-0.2-1-0.3-1.4
		c-0.2-0.1-0.4-0.2-0.9-0.1c-2.4,0.2-4.3,0.7-5.7,1.4c-1.4,0.7-2.3,1.8-2.6,3.1c-0.2,0.7,0.1,0.8,0.8,0.3c0.9-0.5,1.6-1.1,2.3-1.8
		c0.2-0.2,0.4-0.3,0.6-0.4c0.2,0,0.5-0.1,0.6,0c1.3,0.2,2.3,0.5,2.8,1c0.5,0.4,0.8,1.1,0.9,1.9c0.1,0.5,0,0.9,0,1.2
		c-0.1,0.3-0.3,0.7-0.7,1.2c-0.5,0.7-0.9,1.4-1,2.1c-0.1,0.6,0,1.3,0.3,2.1c0.2,0.4,0.2,0.7,0.2,0.8c0,0.2-0.1,0.3-0.4,0.3
		c-1.5,0.3-2.8,0.4-3.7,0.6c-0.9,0.1-1.8,0.1-2.6,0.1c-0.1,0.2-0.1,0.4-0.1,0.6c0,0.2,0.1,0.6,0.1,1c0.1,0.3,0,0.5-0.1,0.5
		c-0.2,0-0.4-0.2-0.8-0.6c-0.2-0.3-0.4-0.6-0.6-1c-0.2-0.4-0.4-0.9-0.6-1.3c-0.2-0.5-0.3-0.9-0.5-1.4c-0.1-0.5-0.2-0.9-0.3-1.3
		c-0.1-0.5-0.2-1-0.2-1.5c0-0.4,0-0.8,0.1-1.2c0.1-0.4,0.2-0.8,0.4-1.2c0.2-0.4,0.4-0.8,0.8-1.3c0.5-0.8,1.1-1.5,1.6-2.1
		c0.5-0.6,1.2-1.1,1.8-1.5s1.4-0.8,2.3-1.2c0.8-0.3,1.8-0.7,2.9-1c0.4-0.1,0.6-0.2,0.6-0.4c0.1-0.1,0.1-0.2,0-0.4
		c-1.9,0.1-3.7,0.4-5.2,0.8c-1.6,0.5-2.9,1.1-3.9,1.8c-0.8,0.6-1.5,0.9-2,1c-0.5,0.1-1-0.1-1.5-0.5c0.2,1.4,0.3,2.6,0.4,3.6
		c0,1,0,1.8-0.2,2.5c-0.1,0.7-0.4,1.4-0.6,1.9c-0.3,0.5-0.6,1.1-0.9,1.5c-0.4,0.7-0.8,1.1-1.2,1c-0.4-0.1-0.7-0.4-0.9-1.1
		c-0.1-0.2-0.2-0.4-0.3-0.6c-0.1-0.2-0.2-0.3-0.3-0.5c-0.1,0.1-0.2,0.4-0.3,0.9c-0.1,0.5-0.2,1.2-0.3,2c-0.1,0.8-0.2,1.7-0.3,2.6
		c-0.1,0.9-0.2,1.8-0.2,2.7c-0.1,0.8-0.1,1.6-0.2,2.4c-0.1,0.8-0.1,1.6-0.2,2.3c-0.1,0.7-0.2,1.4-0.2,2c-0.1,0.6-0.1,1-0.2,1.4
		c-0.2,0.8-0.4,1.3-0.6,1.3c-0.3,0-0.7-0.4-1.4-1.4c-0.4-0.6-0.7-1.1-1-1.5c-0.3-0.4-0.5-0.7-0.6-1c-0.1-0.3-0.2-0.6-0.3-0.8
		c0-0.3-0.1-0.5-0.1-0.9c0.1-1.4,0.1-3,0.1-4.7c0-1.7,0.1-3.3,0.1-4.9c0-1.6,0-3.2,0-4.7c0-1.5,0-2.7-0.1-3.8c0-0.6,0.1-1.2,0.3-1.8
		c0.2-0.6,0.5-1,0.9-1.1c0.2,0,0.3,0,0.5,0.1c0.2,0.1,0.4,0.2,0.6,0.4c0.2,0.2,0.3,0.3,0.5,0.5c0.1,0.2,0.2,0.3,0.2,0.4
		c0.2,0.7,0.5,1.4,0.9,1.9c0.4,0.5,1.1,1.1,2.3,1.7c0.7,0.4,1.1,0.1,1.2-0.6c0-0.3,0-0.6,0-0.9c0-0.4-0.2-0.7-0.4-1.1
		c-0.2-0.3-0.4-0.6-0.6-1c-0.2-0.4-0.3-0.8-0.4-1.1c-0.1-0.4-0.2-0.7-0.3-1s-0.1-0.5-0.1-0.6c0-0.3,0-0.4-0.1-0.4
		c-0.1,0-0.3,0-0.7,0c-0.2,0.1-0.5,0.1-0.9,0c-0.4-0.1-0.7-0.2-1-0.3s-0.6-0.3-0.9-0.5c-0.3-0.2-0.5-0.3-0.6-0.5
		c-0.2-0.3-0.4-0.5-0.8-0.7c-0.4-0.2-0.7-0.4-1.1-0.6c-0.4-0.1-0.4-0.2-0.3-0.4c0.1-0.1,0.3-0.1,0.5-0.1c0.6,0.1,1.2,0.1,1.9-0.2
		c0.5-0.2,1-0.6,1.6-1.1s1.1-1,1.6-1.5c0.5-0.5,0.9-1,1.2-1.5c0.4-0.5,0.6-0.9,0.7-1.1c0.1-0.3,0.3-0.4,0.5-0.4c0.2,0,0.5,0,0.8,0.1
		c0.5,0.1,1,0.2,1.3,0.3c0.3,0.1,0.6,0.2,0.8,0.3c0.2,0.1,0.4,0.2,0.5,0.3c0.1,0.1,0.3,0.3,0.4,0.5c0.3,0.4,0.5,0.7,0.6,0.9
		c0.1,0.3,0.3,0.6,0.4,1c0.1,0.2,0,0.4-0.2,0.6c-0.2,0.2-0.4,0.3-0.7,0.3c-0.4,0-0.7,0.4-1,1.2c-0.3,0.8-0.7,2-1.3,3.7
		c-0.1,0.3-0.1,0.5,0.2,0.6c0.4-0.8,0.9-1.4,1.2-1.6c0.4-0.2,0.8-0.3,1.2-0.3c0.3,0,0.6,0,1-0.1c0.3-0.1,0.6-0.1,0.9-0.2
		c1.6-0.5,3.3-0.9,5.1-1.3s3.5-0.6,5.1-0.8c1.7-0.1,3-0.3,3.8-0.4c0.8-0.1,1.3-0.3,1.5-0.4c0.2-0.2,0.6-0.3,1-0.3
		c0.4,0,1.2,0.2,2.4,0.5c0.9,0.2,1.4,0.6,1.8,1C254.3,45.9,254.5,46.5,254.5,47.2z M225,58.1c-0.2-0.3-0.3-0.5-0.4-0.6
		c-0.1-0.2-0.2-0.4-0.3-0.6s-0.3-0.4-0.5-0.6c-0.2-0.2-0.4-0.5-0.8-0.9c0,0.3,0.1,0.9,0.1,1.8c0,0.9,0.1,1.9,0.1,2.9
		c0,1.1,0,2.1,0,3.1c0,1,0,1.7,0,2.2c0.1-0.2,0.2-0.7,0.4-1.4c0.2-0.7,0.4-1.5,0.6-2.4c0.2-0.8,0.3-1.6,0.5-2.3
		C225,58.7,225,58.3,225,58.1z M238.8,55.6c-0.2,0.1-0.5,0.1-0.8,0.2c-0.3,0.1-0.6,0.2-1,0.3c-0.3,0.1-0.6,0.2-0.8,0.3
		s-0.4,0.2-0.5,0.2c-0.1,0.1-0.2,0.3-0.2,0.5c0,0.3-0.1,0.5-0.1,0.9c0,0.3,0,0.6,0,0.9c0,0.3,0.1,0.6,0.2,0.7c0.2,0.1,0.5,0.1,1,0
		c0.5-0.1,0.9-0.3,1.3-0.7c0.2-0.3,0.4-0.6,0.6-1c0.2-0.4,0.3-0.7,0.4-1s0.1-0.6,0.1-0.9C238.9,55.9,238.9,55.7,238.8,55.6z"/>
	<path class="st0" d="M305.5,74.2c0,0.3,0,0.5-0.1,0.6c-0.1,0.1-0.3,0.2-0.6,0.2c-0.3,0-0.8-0.1-1.5-0.3c-0.7-0.2-1.6-0.4-2.8-0.8
		c-0.9-0.3-1.7-0.6-2.3-0.9c-0.6-0.3-1.3-0.7-1.9-1.3c-0.6-0.6-1.4-1.3-2.2-2.3c-0.8-1-1.8-2.2-3.1-3.8c-0.5-0.6-1-1.2-1.4-1.7
		c-0.4-0.5-0.9-0.9-1.3-1.3c-0.4-0.4-0.9-0.7-1.5-0.9c-0.5-0.3-1.1-0.5-1.8-0.6c-0.7-0.2-1.6-0.2-2.4-0.1c-0.9,0.1-1.7,0.3-2.4,0.6
		c-0.7,1.5-1.4,2.8-2,3.9c-0.6,1.1-1.1,2.1-1.7,2.9c-0.6,0.8-1.2,1.6-1.8,2.4c-0.6,0.7-1.4,1.6-2.2,2.4c-0.5,0.5-1,0.9-1.4,1.3
		s-0.8,0.7-1.3,0.9c-0.4,0.3-0.9,0.5-1.4,0.7c-0.5,0.2-1.1,0.4-1.7,0.6c-1.3,0.4-2,0.5-2.1,0.4c-0.1-0.1,0.3-0.4,1.1-0.8
		c0.7-0.4,1.5-0.9,2.4-1.8s1.6-1.7,2.4-2.6c0.3-0.3,0.7-0.9,1.3-1.8c0.6-0.9,1.2-1.9,1.9-2.9c0.7-1,1.2-1.9,1.8-2.8
		c0.5-0.9,0.8-1.4,0.9-1.7c-0.8,0.2-1.6,0.5-2.5,0.8c-0.9,0.4-1.6,0.7-2.1,1c-0.8,0.4-1.5,0.5-2.1,0.1c-0.6-0.4-0.9-1.1-0.8-2.1
		c0.1-1.1,0.1-1.7,0.2-1.9c0.1-0.2,0.2-0.2,0.5,0c0.2,0.1,0.4,0.1,0.8,0c0.4-0.1,0.9-0.4,1.7-0.8c0.3-0.1,0.6-0.3,1-0.5
		c0.4-0.2,0.9-0.4,1.3-0.7c0.5-0.2,0.9-0.5,1.4-0.7c0.5-0.3,0.9-0.5,1.3-0.7c-0.1-0.6-0.2-1.2-0.3-1.7c-0.1-0.5-0.1-1.1-0.2-1.8
		c0-0.7-0.1-1.5-0.1-2.5c0-1,0-2.2,0-3.8c-0.4-0.1-0.8-0.2-1.2-0.3c-0.4-0.1-0.7-0.3-1.1-0.5c-0.4-0.2-0.7-0.5-1.1-0.9
		c-0.4-0.4-0.8-0.8-1.3-1.4c-0.4-0.4-0.5-0.6-0.3-0.7c0.1-0.1,0.7-0.1,1.6,0c0.7,0.1,1.9-0.1,3.6-0.6c0.1-0.6,0.2-1.1,0.2-1.7
		c0-0.6-0.1-1-0.2-1.3c-0.2-0.4-0.2-0.7,0.1-0.9c0.3-0.2,0.8-0.1,1.7,0.1c0.6,0.2,1,0.4,1.3,0.8c0.3,0.4,0.5,0.9,0.5,1.8
		c0.4-0.2,1.1-0.5,1.8-0.7c0.8-0.3,2-0.6,3.6-1.1c0-0.4,0-0.7-0.1-1.1c0-0.4-0.1-0.7-0.3-0.9c-0.3-0.5-0.6-0.8-1-0.9s-0.6-0.1-0.7,0
		c-0.2,0.2-0.3,0.4-0.4,0.5c-0.1,0.1-0.2,0.2-0.4,0.2c-0.1,0-0.2-0.2-0.1-0.5c0.1-0.3,0.3-0.6,0.6-0.8c0.2-0.2,0.3-0.3,0.4-0.5
		c0.1-0.2,0.2-0.4,0.4-0.6c0.1-0.2,0.3-0.4,0.5-0.4c0.2-0.1,0.5-0.1,1-0.1c1.1,0,2,0.4,2.5,1.2c0.5,0.8,0.8,1.9,0.8,3.3
		c0.6-0.2,1.3-0.2,1.9,0c0.6,0.1,1.2,0.4,1.7,0.9c0.3,0.2,0.4,0.5,0.6,0.8c0.1,0.3,0.2,0.6,0.2,0.9c0,0.3,0,0.5-0.1,0.7
		s-0.3,0.3-0.5,0.3c-0.2,0-0.4,0-0.7,0.1c-0.3,0.1-0.6,0.1-1,0.2c-0.4,0.1-0.7,0.2-1.1,0.3c-0.4,0.1-0.7,0.2-0.9,0.3
		c0,0.7,0.1,1.6,0.1,2.7c0,1.1,0,2.2,0,3.4c0,1.2-0.1,2.4-0.2,3.6c-0.1,1.2-0.2,2.3-0.4,3.2c0.6-0.3,1.2-0.4,2-0.5
		c0.8-0.1,1.3,0,1.7,0.4c0.9,0.9,1.4,1.4,1.4,1.7c0,0.3-0.4,0.4-1.1,0.5c-0.7,0.1-1.3,0.1-1.8,0.2c-0.5,0.1-1.2,0.3-2.1,0.5
		c0.5,0.4,1,0.8,1.6,1.3c0.6,0.5,1.2,1.2,1.9,2.1c0.3,0.4,0.8,0.9,1.4,1.4c0.6,0.6,1.2,1.2,1.8,1.7c0.6,0.6,1.3,1.1,1.9,1.6
		c0.6,0.5,1.1,0.8,1.5,1c1.4,0.7,2.6,1.4,3.5,1.9s1.6,1,2.1,1.4c0.5,0.4,0.8,0.8,1,1.1C305.4,73.5,305.5,73.8,305.5,74.2z
		 M278.1,59.5c-0.2-0.2-0.3-0.4-0.4-0.6c-0.1-0.2-0.2-0.4-0.2-0.7c-1.1,0.4-2.3,0.8-3.5,1.3c-1.2,0.5-2.3,1.1-3.3,1.8
		c0.6,0,1.4,0,2.5-0.2c1-0.2,1.9-0.5,2.9-0.7C277.1,60,277.7,59.7,278.1,59.5z M293,76.9c0,0.3,0,0.5,0,0.7c0,0.2-0.1,0.3-0.2,0.4
		c-0.1,0.1-0.4,0.2-0.7,0.2c-0.3,0-0.8,0-1.3,0c-1.3,0-2.4-0.2-3.2-0.6c-0.1-0.1-0.3-0.1-0.6-0.1c-0.3,0-0.6-0.1-0.9-0.1
		c-0.3,0-0.6,0-0.9,0c-0.3,0-0.6,0-0.8,0c-0.7,0.1-1.6,0.2-2.4,0.6c-0.9,0.3-2,0.7-3.4,1.3c-0.7,0.3-1.3,0.4-1.6,0.3
		c-0.3-0.1-0.5-0.2-0.4-0.5c0-0.4,0-0.7,0-0.9c0-0.3-0.2-0.5-0.4-0.7c-0.4-0.5-0.6-1-0.4-1.3c0.2-0.3,0.5-0.6,1.2-0.7
		c0.6-0.2,1.2-0.3,2-0.5c0.8-0.2,1.4-0.3,2-0.4c0.5-0.3,0.9-0.8,1.1-1.5c0.2-0.7,0.3-1.4,0.3-2.2c-0.5-0.1-0.9-0.2-1.2-0.3
		c-0.3-0.1-0.6-0.2-0.9-0.3c-0.3-0.1-0.6-0.3-0.9-0.5c-0.3-0.2-0.6-0.4-1-0.7c-0.4-0.3-0.6-0.6-0.6-0.7c0-0.2,0.4-0.4,1.2-0.8
		c0.7-0.4,1.4-0.7,2-1c0.6-0.3,1.2-0.5,1.7-0.7c0-0.6-0.1-1.1-0.2-1.3c-0.1-0.2-0.3-0.4-0.6-0.4c-0.4-0.1-0.6-0.2-0.7-0.3
		c-0.1-0.1-0.2-0.4-0.2-0.7c0-0.4,0.1-0.7,0.3-0.8c0.2-0.1,0.8-0.1,1.7,0c0.7,0.1,1.3,0.2,1.7,0.3c0.4,0.1,0.7,0.3,1,0.5
		c0.2,0.2,0.4,0.5,0.5,0.8c0.1,0.3,0.1,0.7,0.2,1.2c0.6,0.1,1.1,0.3,1.5,0.6c0.3,0.3,0.7,0.8,1.2,1.6c0.1,0.2,0.1,0.4,0.1,0.7
		c0,0.3-0.1,0.5-0.2,0.7c-0.1,0.2-0.2,0.4-0.4,0.6c-0.1,0.1-0.3,0.2-0.5,0.1c-0.8-0.2-1.4-0.1-1.7,0.2c-0.2,0.7-0.4,1.3-0.5,1.8
		c-0.1,0.6-0.3,1.4-0.5,2.4c2.6-0.3,4.6-0.2,5.8,0.3S292.9,75.6,293,76.9z M281.7,51.1c-0.3,0-0.7,0-1.2,0s-0.8-0.1-1.2-0.2v2.1
		C280.5,52.3,281.3,51.7,281.7,51.1z M285.7,44.8c-0.5,0.2-1.1,0.4-1.7,0.7c-0.6,0.3-1.2,0.6-1.7,0.8c-0.4,0.2-0.8,0.4-1.2,0.5
		c-0.4,0.2-0.8,0.3-1.2,0.4c-0.2,0.4-0.2,0.9-0.2,1.4c0.3-0.1,0.7-0.2,1-0.3c0.4-0.1,0.9-0.3,1.7-0.6c0.6-0.3,1.2-0.4,1.7-0.3
		c0.5,0,1,0.2,1.6,0.6c0.1-0.3,0.2-0.8,0.2-1.5C285.7,45.9,285.7,45.3,285.7,44.8z M285.6,57.4c-0.3-0.4-0.4-0.9-0.5-1.2
		c-0.1-0.4-0.1-0.8,0-1.4c-1.1,0.2-2.1,0.4-3.1,0.8c-1,0.4-1.8,0.8-2.3,1.1c0,0.4,0,0.9,0,1.3c1-0.3,1.9-0.4,2.6-0.5
		c0.7,0,1.4,0,2,0.2c0.3-0.1,0.5-0.1,0.7-0.2C285.1,57.5,285.4,57.5,285.6,57.4z M285.4,49.9c-0.5,0-1.1,0.1-1.6,0.5
		c-0.9,0.6-1.5,1.1-1.9,1.4c-0.4,0.3-0.7,0.6-1,0.8c0.6-0.2,1.1-0.3,1.6-0.4c0.4-0.1,0.8-0.2,1.1-0.2c0.3,0,0.6,0,0.8,0.1
		c0.3,0.1,0.5,0.2,0.8,0.3c0-0.4,0-0.8,0-1.3C285.2,50.8,285.3,50.3,285.4,49.9z"/>
	<path class="st0" d="M351.7,69.8c0,0.5-0.2,0.8-0.6,1.1s-0.9,0.4-1.5,0.4s-1.2,0-1.8-0.1c-0.6-0.1-1.1-0.3-1.5-0.6
		c-0.7-0.4-1.6-0.7-2.8-0.9c-1.2-0.2-2.5-0.2-4-0.1s-3.2,0.4-4.9,0.8c-1.8,0.4-3.6,1-5.6,1.7c-0.5,0.2-1.1,0.3-1.6,0.2
		c-0.5-0.1-0.9-0.2-1.3-0.4s-0.7-0.5-1-0.8c-0.2-0.3-0.4-0.7-0.4-1.1c0-0.3,0-0.6,0.1-0.8s0.2-0.4,0.5-0.6c0.2-0.2,0.6-0.3,1.1-0.5
		s1.2-0.3,2-0.4c1-0.4,2.2-0.9,3.5-1.7c1.3-0.8,2.8-2,4.5-3.5c-0.6-0.1-1.2-0.1-1.8,0c-0.6,0.1-0.9,0.2-1,0.4
		c-0.1,0.4-0.4,0.5-0.8,0.4c-0.4-0.1-0.9-0.5-1.3-1.2c-0.5-0.6-0.9-1.5-1.3-2.7c-0.4-1.2-0.6-2.6-0.6-4.3c-0.7,1.7-1.2,3-1.6,3.9
		c-0.4,0.9-0.8,1.7-1.3,2.3c-0.3,0.4-0.6,0.8-0.9,1.4c-0.3,0.5-0.7,1.1-1,1.7c-0.3,0.6-0.7,1.2-1,1.7s-0.6,1.1-0.8,1.5
		c-2,3.9-3.5,5.9-4.5,5.9c-0.1,0-0.3,0-0.4-0.1c-0.1-0.1-0.3-0.3-0.5-0.6c-0.2-0.3-0.3-0.7-0.5-1.3s-0.3-1.3-0.5-2.3
		c-0.1-0.5-0.2-1-0.2-1.3c0-0.3,0-0.6,0.1-0.9c0.1-0.3,0.3-0.5,0.6-0.7c0.3-0.2,0.6-0.5,1.1-0.7c0.1-0.4,0.1-1.1,0.2-2.2
		c0.1-1,0.2-2.5,0.3-4.3c-0.5,0.6-1,1-1.4,1.3c-0.4,0.3-0.7,0.5-1,0.7c-0.3,0.1-0.6,0.2-0.9,0.2c-0.3,0-0.6-0.1-0.9-0.2
		c-0.4-0.2-0.8-0.4-1.1-0.6c-0.3-0.2-0.7-0.5-1-0.8c-0.3-0.3-0.6-0.7-1-1.2c-0.3-0.5-0.7-1.1-1-1.8c-0.3-0.6-0.2-0.8,0.4-0.7
		c0.4,0.1,0.8,0.2,1.2,0.1c0.4,0,0.9-0.2,1.4-0.5c0.6-0.3,1.3-0.8,2.2-1.4s2-1.5,3.4-2.5c0-1.4,0-2.6-0.1-3.6s-0.2-1.7-0.4-2.4
		c-0.2-0.6-0.3-1.1-0.6-1.4c-0.2-0.4-0.4-0.6-0.6-0.9c-0.3-0.3-0.4-0.7-0.5-1c0-0.4,0-0.7,0.2-1c0.2-0.3,0.5-0.5,0.9-0.6
		c0.4-0.1,0.9-0.1,1.6,0.1c0.6,0.3,1.2,0.6,1.7,1c0.5,0.4,0.9,0.9,1.2,1.6c0.3,0.6,0.5,1.4,0.6,2.4s0.1,2.1,0,3.5
		c1.1,0,1.8,0.2,2.3,0.5s0.8,0.9,1.1,1.8c0.2,0.7,0.3,1.2,0.2,1.4c0,0.2-0.2,0.4-0.6,0.5c-0.5,0.2-1,0.4-1.5,0.7
		c-0.5,0.3-1.2,0.9-2,1.8c-0.1,0.5-0.1,1.3-0.2,2.4c-0.1,1-0.2,2.3-0.3,3.7c1.2-1.2,2.2-2.3,3-3.2s1.5-1.9,2.1-2.7
		c0.5-0.8,1-1.7,1.3-2.5c0.3-0.8,0.6-1.7,0.8-2.6c0-0.8,0-1.7,0-2.6c0-0.9,0-1.9,0-3c0-0.5,0-0.9,0.1-1.2c0.1-0.3,0.3-0.4,0.5-0.3
		c0.2,0.1,0.6,0.3,1,0.7c0.4,0.4,1,1,1.7,1.8c0.8-1.2,1.6-2.1,2.2-2.8c0.6-0.7,1.2-1.2,1.8-1.6c0.6-0.4,1.2-0.6,1.9-0.7
		c0.7-0.1,1.5-0.2,2.5-0.2c0.7,0,1.3,0,1.8,0.1s1,0.3,1.5,0.6s1,0.8,1.6,1.5c0.6,0.7,1.3,1.6,2.1,2.7c0.6,0.8,0.6,1.7-0.1,2.6
		c-0.4,0.7-0.8,1.3-1,1.9c-0.2,0.6-0.4,1.2-0.5,1.9c-0.1,1.2-0.3,2.2-0.5,3.1c-0.2,0.9-0.5,1.7-0.8,2.5c-0.3,0.8-0.7,1.5-1.2,2.2
		c-0.5,0.7-1.1,1.5-1.8,2.3c-0.2,0.2-0.5,0.4-0.9,0.6c-0.4,0.1-0.8,0.2-1.1,0.2c-0.2,0-0.5,0.1-0.8,0.3c-0.4,0.2-0.8,0.5-1.2,0.8
		c-0.4,0.3-0.8,0.7-1.2,1.1c-0.4,0.4-0.8,0.8-1.1,1.1c1.1-0.1,2.3-0.2,3.6-0.2c1.3-0.1,2.6-0.1,3.8-0.1s2.3,0,3.3,0.1
		c1,0.1,1.7,0.2,2.1,0.3c0.4,0.1,0.7,0.3,1.1,0.6c0.4,0.3,0.7,0.6,1,0.9c0.3,0.3,0.5,0.7,0.7,1C351.6,69.2,351.7,69.5,351.7,69.8z
		 M342.6,52.7c0.2-0.9,0.3-1.8,0.4-2.7c0.1-0.9,0.2-1.7,0.2-2.4c0-0.7,0-1.4-0.1-1.9c-0.1-0.5-0.3-0.9-0.6-1.2
		c-0.6,0.5-1.3,1-2.3,1.3c-0.9,0.4-1.9,0.6-2.8,0.7c-1.2,0.1-2.1,0.3-2.8,0.6c-0.6,0.2-1.1,0.6-1.5,1c0.1,0.2,0.2,0.4,0.2,0.8
		c0.1,0.4,0.1,0.8,0.2,1.2c0,0.4,0.1,0.8,0.1,1.2c0,0.4,0,0.7,0,0.9c1.2-0.5,2.1-1,2.9-1.2c0.8-0.3,1.5-0.4,2.2-0.4
		c0.6,0,1.2,0.2,1.8,0.6C341.2,51.4,341.9,52,342.6,52.7z M338.2,55.2c-0.1,0-0.4-0.1-0.8-0.1c-0.4,0-0.8,0-1.3,0
		c-0.5,0-0.9,0-1.3,0c-0.4,0-0.7,0-0.9,0c0,0.1-0.1,0.3-0.1,0.6c-0.1,0.3-0.1,0.6-0.2,1c-0.1,0.4-0.1,0.7-0.1,1c0,0.3,0,0.6,0,0.8
		c0.3,0,0.7-0.1,1.3-0.3c0.5-0.3,1-0.6,1.6-0.9c0.5-0.4,1-0.7,1.4-1.1C338,55.7,338.2,55.4,338.2,55.2z M342.2,53.8
		c-0.3,0.2-0.7,0.6-1.2,1c-0.4,0.4-0.9,0.9-1.3,1.4c-0.4,0.5-0.8,1-1.2,1.4c-0.4,0.4-0.6,0.8-0.8,1c1-0.1,1.8-0.2,2.3-0.3
		c0.5-0.1,1-0.3,1.4-0.4c0.2-0.4,0.3-1,0.4-1.8C341.9,55.3,342,54.5,342.2,53.8z"/>
	<path class="st0" d="M394,50.6c-0.3,0.1-0.6,0.3-1,0.7c-0.4,0.4-0.8,0.8-1.3,1.2c-0.4,0.5-0.9,1-1.3,1.5c-0.4,0.5-0.8,1.1-1.1,1.5
		c1.3,2.2,0.8,3.3-1.4,3.2c-0.2,0-0.4,0-0.8,0.1c-0.4,0.1-0.8,0.2-1.3,0.3s-1,0.3-1.6,0.6c-0.6,0.2-1.1,0.5-1.6,0.8c0,1.2,0,2.1,0,3
		c0,0.8,0,1.6-0.1,2.4c0,0.8-0.1,1.6-0.1,2.4s-0.1,1.9-0.1,3c-0.1,1.5-0.2,3-0.5,4.6c-0.2,1.6-0.5,3-0.8,4.4
		c-0.1,0.3-0.2,0.5-0.3,0.6s-0.3,0.1-0.5,0s-0.4-0.3-0.5-0.7c-0.2-0.4-0.3-0.9-0.5-1.7c-0.1-0.4-0.1-0.9-0.2-1.4s-0.1-1.1-0.2-1.7
		c0-0.6-0.1-1.2-0.1-1.7c0-0.5-0.1-1-0.1-1.4c-0.1-1.1-0.1-2-0.1-2.7c0-0.8,0-1.5,0-2.1c0-0.7,0-1.3,0-2c0-0.7,0-1.5,0-2.4
		c-0.8,0.5-1.5,0.8-2.2,1c-0.6,0.2-1.3,0.3-1.9,0.3c-0.4,0-0.9-0.1-1.3-0.2c-0.4-0.1-0.9-0.3-1.5-0.6c0.2,1.1,0,1.7-0.5,2
		s-1.2,0.1-2.2-0.7c-1.7-1.3-2.8-2.6-3.3-3.9c-0.5-1.3-0.6-2.6-0.3-4.1c0.3-1.2,0.4-2.2,0.4-2.9c0-0.8-0.3-1.4-0.9-2
		c-0.6-0.6-0.9-1.1-0.9-1.3c0-0.3,0.3-0.3,0.9,0c0.7,0.4,1.3,0.7,1.9,1.1c0.6,0.4,1.2,1,1.9,1.7c1.6-1.2,3.2-2.3,4.8-3.4
		c1.6-1,3.3-2.2,5.2-3.5c-0.3-0.7-0.6-1.4-0.8-2.1c-0.2-0.7-0.4-1.4-0.6-2.2c-0.1-0.8-0.2-1.6-0.1-2.5c0-0.9,0.2-1.8,0.5-2.8
		c0.1-0.8,0.4-1.3,0.8-1.6c0.5-0.3,1-0.4,1.5-0.3c0.6,0.1,1.1,0.3,1.7,0.7c0.5,0.4,0.9,0.9,1.2,1.4c0.3,0.5,0.5,1,0.6,1.4
		c0.2,0.4,0.3,0.9,0.4,1.3c0.1,0.5,0.1,1,0.1,1.6c0,0.6-0.1,1.3-0.2,2.2c0.7-0.4,1.5-0.6,2.5-0.8c0.9-0.2,1.9-0.3,2.8-0.3
		c0.9,0,1.8,0.1,2.5,0.4c0.8,0.2,1.4,0.6,1.8,1.1c1.3,1.5,2,2.8,2.2,4C395.6,49.3,395.1,50.1,394,50.6z M378.7,50.8
		c-0.8,0.8-1.7,1.5-2.5,2.2c-0.8,0.7-1.6,1.3-2.3,1.9c-0.7,0.6-1.4,1.1-1.9,1.6c-0.6,0.5-1,1-1.3,1.4c0,0.1,0,0.3,0,0.5
		c0,0.3,0,0.5,0,0.8c0,0.3,0,0.6,0,0.9c0,0.3,0,0.5,0,0.7c0.4,0.2,1.3,0,2.6-0.6c1.3-0.5,3.1-1.7,5.4-3.4c0-0.4,0-0.8,0-1.4
		c0-0.6,0-1.1,0-1.7c0-0.6,0-1.2,0-1.7C378.7,51.5,378.7,51.1,378.7,50.8z M379,38c-0.1-0.3-0.2-0.4-0.5-0.4c-0.3,0-0.5,0-0.6,0.2
		c-0.2,1-0.2,2,0,3c0.2,1,0.5,2,0.7,2.8c0.1-0.3,0.1-0.7,0.2-1.2c0.1-0.5,0.1-1,0.1-1.6c0-0.5,0-1.1,0-1.6
		C379.1,38.8,379,38.4,379,38z M390.2,48.3c0.7-0.9,0.9-1.6,0.6-1.9c-0.3-0.4-0.9-0.5-2-0.5c-0.4,0-0.8,0.1-1.4,0.2
		c-0.5,0.1-1.1,0.3-1.6,0.4c-0.5,0.2-1.1,0.4-1.5,0.6c-0.5,0.2-0.8,0.5-1.1,0.7c-0.1,0.9-0.2,1.8-0.2,2.7c0,0.9-0.1,1.8-0.1,2.7
		c0.5,0.7,1,1,1.6,1.1c0.5,0,1-0.2,1.4-0.6c0.6-0.7,1.3-1.6,2.1-2.5S389.4,49.3,390.2,48.3z"/>
	<path class="st0" d="M445,73.2c-0.2,0.7-0.6,1-1.1,1.1c-0.5,0.1-0.8,0-1.1-0.3c-0.6-0.6-1.1-1.2-1.5-1.8c-0.4-0.5-0.7-1.3-1.1-2.4
		c-1.8,0.4-3.7,0.9-5.5,1.6c-1.9,0.7-3.6,1.4-5.2,2.3c-0.4,0.2-0.8,0.3-1.1,0.4c-0.3,0-0.6,0-0.9-0.2c-0.3-0.2-0.6-0.4-1-0.8
		s-0.7-0.9-1.2-1.6c-0.5-0.7-0.6-1.5-0.4-2.4s0.8-1.6,1.6-2.2c1.2-0.9,2.5-2,3.8-3.2c1.4-1.2,2.7-2.4,3.8-3.5
		c0.4-0.4,0.3-0.6-0.2-0.5c-1.5,0.3-2.6,0.7-3.3,1.2c-0.7,0.5-1.2,0.7-1.7,0.7c-0.5,0-0.9-0.6-1.4-1.6c-0.4-0.9-0.7-1.7-0.7-2.2
		c0-0.5,0.2-1,0.6-1.3c0.4-0.4,0.7-0.6,0.7-0.8c0-0.1-0.1-0.2-0.4-0.3c-0.8-0.1-1.6-0.1-2.4,0c-0.8,0.2-1.5,0.5-2.2,1.2
		c-0.7,0.6-1.3,1.5-1.9,2.6c-0.6,1.1-1.2,2.6-1.6,4.4c-0.4,1.3-0.7,2.9-0.9,4.8s-0.5,4.3-0.7,7c-0.1,0.5-0.3,0.9-0.8,1
		c-0.5,0.1-1.2,0-2.1-0.5c-0.5-0.3-1.1-0.7-1.7-1.4c-0.6-0.7-1.2-1.5-1.7-2.4s-1-1.8-1.3-2.8s-0.5-1.9-0.6-2.7c0-0.9,0-1.9,0-3
		c0.1-1.2,0.2-2.3,0.3-3.5c0.1-1.2,0.2-2.3,0.4-3.4c0.1-1.1,0.3-2,0.4-2.7c0.2-0.7,0.3-1.4,0.5-2c0.2-0.6,0.4-1.1,0.7-1.6
		c0.3-0.5,0.7-1,1.1-1.5c0.4-0.5,1-1.1,1.6-1.6c0.3-0.3,0.5-0.6,0.6-0.9s0-0.6-0.3-0.9c-0.4-0.5-0.8-1.1-1.2-1.6s-0.7-1.1-1.2-1.7
		c-0.2-0.2-0.2-0.4-0.1-0.5c0.1-0.2,0.2-0.3,0.4-0.4c0.2-0.1,0.4-0.1,0.6-0.1s0.4,0,0.6,0.1c0.7,0.4,1.4,0.7,2.2,1.1
		c0.8,0.3,1.6,0.6,2.4,0.8c1.1,0.3,2,0.7,2.6,1.2c0.6,0.5,1,1.1,1.4,1.8c0.3,0.5,0.2,1-0.1,1.3c-0.4,0.4-0.8,0.5-1.4,0.5
		c-0.5,0-0.9,0-1.2,0.1c-0.4,0.1-0.8,0.4-1.3,0.8c-1.3,0.9-2.1,1.4-2.6,1.5c-0.4,0.1-0.7,0-0.6-0.3c0-0.2-0.2-0.2-0.6,0
		c-0.4,0.1-0.8,0.4-1.1,0.7c-1.2,1.4-1.2,3.4,0,6c0.6,1.2,1,2.1,1,2.6c0,0.5-0.1,0.9-0.5,1.2c-0.2,0.2-0.4,0.7-0.7,1.5
		c-0.2,0.8-0.4,1.7-0.6,2.6c-0.1,1-0.2,1.9-0.3,2.9c0,1,0,1.8,0.2,2.4c0.4,0.8,0.8,1,1.4,0.4c0.4-0.4,0.8-0.9,1-1.4
		c0.4-1.4,0.7-2.6,1-3.7c0.3-1.1,0.7-2.1,1-3c0.4-0.9,0.7-1.8,1.1-2.6c0.4-0.8,0.8-1.6,1.3-2.5c0.3-0.5,0.7-1.1,1.2-1.7
		c0.5-0.6,1-1.1,1.6-1.6c0.6-0.5,1.1-0.9,1.7-1.3c0.6-0.4,1.1-0.6,1.5-0.8c0.9-0.3,1.8-0.6,2.5-0.9c0.7-0.3,1.5-0.7,2.3-1.1
		c0.4-0.8,0.7-1.6,1-2.4c0.3-0.9,0.6-1.7,0.8-2.5c0.2-0.8,0.4-1.6,0.6-2.3c0.2-0.7,0.3-1.2,0.3-1.7c0-0.3,0-0.5-0.2-0.6
		s-0.7-0.3-1.7-0.5c-0.5-0.1-0.7-0.4-0.5-0.7c0.9-0.7,1.9-1.1,3-1.1c0.7,0,1.4,0.1,2,0.4c0.6,0.3,1.2,0.6,1.6,1.1s0.7,0.9,0.9,1.4
		s0.1,1,0,1.5c-0.3,0.6-0.5,1.2-0.6,1.8s-0.3,1.1-0.4,1.7c0.5,0.4,1.4,0.5,2.5,0.6c0.5,0,1.1,0.1,1.6,0.3c0.5,0.1,1.2,0.4,2,0.8
		c0.5,0.3,0.7,0.5,0.8,0.6s-0.1,0.3-0.5,0.6c-0.5,0.4-1,0.7-1.4,0.8c-0.4,0.1-0.9,0.2-1.6,0.3c-1,0-2.1,0.3-3.3,0.7
		c-1.2,0.4-2.3,1-3.2,1.7c-0.4,0.8-0.8,1.5-1.1,2.2s-0.5,1.4-0.7,2.1c1-0.1,1.8-0.2,2.4-0.3c0.6,0,1.2-0.1,1.7,0
		c0.5,0,0.9,0.1,1.2,0.3s0.8,0.3,1.3,0.6c1.1,0.7,1.8,1.3,1.9,1.7c0.1,0.4-0.1,0.9-0.8,1.6c-1.5,1.6-3,3-4.7,4.4
		c-1.6,1.3-3.6,2.7-5.9,4.1c-0.4,0.3-0.5,0.4-0.5,0.6c0,0.1,0.2,0.2,0.5,0.1c1-0.2,1.8-0.3,2.6-0.5c0.8-0.1,1.5-0.3,2.2-0.5
		s1.3-0.3,1.9-0.5c0.6-0.2,1.2-0.4,1.9-0.6c-0.3-0.7-0.5-1.3-0.6-1.7c-0.1-0.4-0.2-0.7-0.1-0.9c0-0.2,0.1-0.3,0.3-0.3s0.4,0,0.6,0.1
		c0.6,0.1,1.2,0.3,1.7,0.6c0.6,0.3,1.1,0.6,1.7,1c0.5,0.4,1,0.8,1.5,1.2c0.5,0.4,0.9,0.9,1.2,1.3c0.2,0.3,0.4,0.6,0.5,0.9
		c0.1,0.3,0.2,0.6,0.2,0.9c0,0.3,0,0.7-0.1,1.1C445.4,72,445.2,72.6,445,73.2z"/>
	<path class="st0" d="M470.5,50.1c-0.4,0.3-0.8,0.5-1.1,0.7c-0.3,0.2-0.6,0.5-1.1,0.9c-0.5,0.4-1,1.2-1.4,2.3
		c-0.4,1.1-0.7,2.6-1,4.5c-0.1,0.6-0.2,1.2-0.2,1.7c0,0.5,0,1,0.1,1.7c0.1-0.3,0.2-0.5,0.2-0.8c0-0.3,0.1-0.5,0.1-0.8
		c0-0.3,0.1-0.7,0.2-1.1c0.1-0.4,0.2-0.8,0.4-1.1c-0.2,2.5-0.2,4.9-0.1,7.1c0.1,2.2,0.4,4.5,1.1,6.8c0.1,0.2,0.1,0.4,0.2,0.6
		c0,0.2,0.1,0.5,0.1,0.7c0,0.3,0,0.6,0,1.1c0,0.4,0,1,0,1.6c0,0.4-0.2,0.5-0.5,0.5s-0.6-0.1-0.7-0.3c-1.4-1.5-2.3-2.9-2.7-4.1
		s-0.6-2.2-0.5-3c0-0.3,0.1-0.8,0.1-1.8s0-2,0-3.4c0-1.3,0-2.8,0-4.3c0-1.5,0.1-2.9,0.1-4.3c-0.3,0.4-0.5,0.8-0.7,1.2
		c-0.2,0.4-0.4,0.8-0.6,1.2c-0.4,0.8-0.9,1.5-1.6,2c-0.7,0.5-1.3,0.7-1.8,0.7c-0.3,0-0.7-0.1-1.1-0.4c-0.5-0.3-1-0.6-1.5-0.9
		c-0.5-0.4-1-0.8-1.4-1.2c-0.4-0.4-0.8-0.8-1-1.2c-0.4-0.7-0.7-1.1-0.7-1.3c0-0.2,0.1-0.3,0.3-0.2c0.4,0.2,0.9,0.2,1.4,0
		c0.5-0.2,1.2-0.7,2.1-1.5c0.9-0.8,1.6-1.5,2.3-2.1c0.6-0.6,1.2-1.1,1.8-1.6c0.5-0.5,1-0.9,1.5-1.2c0.5-0.4,1-0.7,1.5-1.1
		c0.1-1.3,0.2-2.4,0.2-3.3c0-0.9,0-1.7,0-2.3c0-0.6-0.1-1.1-0.2-1.4c-0.1-0.4-0.2-0.6-0.3-0.8c-0.2-0.3-0.3-0.5-0.3-0.8
		c0-0.3,0.1-0.5,0.3-0.6s0.4-0.2,0.8-0.2c0.3,0,0.7,0.1,1.1,0.3c0.6,0.4,1.2,0.8,1.7,1.4c0.5,0.6,0.9,1.2,1.3,1.9
		c0.4,0.7,0.6,1.4,0.8,2.1c0.2,0.7,0.2,1.4,0.1,2c0.5,0.3,1,0.6,1.2,1c0.3,0.4,0.5,0.7,0.5,1.1c0,0.4,0,0.7-0.2,1.1
		C471.1,49.6,470.9,49.9,470.5,50.1z M497,65.3c0.2,0.9,0.1,1.4-0.4,1.6c-0.4,0.2-1,0.1-1.6-0.2c-0.9-0.5-1.8-1-2.8-1.4
		c-0.9-0.4-1.9-0.9-2.8-1.3c-0.3,1-0.6,2.1-1,3.2c-0.4,1.1-0.8,2.2-1.3,3.2c-0.4,1-0.9,1.9-1.4,2.7c-0.5,0.8-1,1.4-1.4,1.7
		c-0.8,0.6-1.4,1-1.7,1.1s-0.5,0-0.7-0.3c-0.6-0.8-1.1-1.5-1.4-2.1c-0.4-0.6-0.7-1.1-0.9-1.6c-0.2-0.5-0.4-0.9-0.6-1.3
		c-0.1-0.4-0.3-0.8-0.4-1.2c-0.2-0.7-0.3-1.3-0.5-1.8s-0.3-0.9-0.5-1.2c-0.8,1.4-1.5,2.6-2.1,3.5c-0.6,0.9-1.1,1.6-1.5,2.1
		c-0.4,0.5-0.8,0.9-1.1,1.1c-0.3,0.2-0.6,0.3-0.8,0.4c-0.3,0.1-0.6,0-0.8-0.1s-0.4-0.4-0.6-0.6c-0.2-0.3-0.2-0.5-0.1-0.8
		s0.3-0.4,0.6-0.5c0.6-0.1,1.4-1.1,2.5-3c1-1.9,2.3-4.9,3.7-9c-0.5,0-1,0.2-1.5,0.7s-1,1.2-1.6,2c-0.4,0.8-1,1.5-1.8,2.1
		c-0.8,0.7-1.5,1.2-2.1,1.5c-0.7,0.4-1.2,0.5-1.5,0.2c-0.3-0.3-0.4-1.1-0.4-2.5c0-1,0.1-1.8,0.2-2.3c0.1-0.5,0.4-0.7,0.8-0.7
		c0.3,0,0.6,0,0.9-0.1s0.6-0.2,0.8-0.3c0.3-0.1,0.7-0.3,1.2-0.5c0.5-0.2,1-0.4,1.7-0.6c0.6-0.2,1.2-0.3,1.9-0.5
		c0.7-0.1,1.3-0.2,1.9-0.3c0.1-0.3,0.2-0.6,0.5-1.1c0.2-0.5,0.4-1,0.7-1.5c0.2-0.5,0.5-1,0.6-1.4c0.2-0.4,0.3-0.8,0.3-1
		c-0.6,0.5-1.2,0.9-1.7,1.2c-0.5,0.3-1,0.5-1.6,0.6c-0.6,0.1-1.2,0.1-1.9-0.1c-0.7-0.1-1.5-0.4-2.4-0.8c-0.4-0.2-0.7-0.3-0.7-0.5
		c0-0.1,0.1-0.4,0.4-0.6c0.6-0.6,1.3-1.2,2-1.8c0.8-0.6,1.5-1.2,2.4-1.7c0.8-0.5,1.6-1,2.4-1.5c0.8-0.4,1.6-0.8,2.4-1.2
		c0.3-1.1,0.4-1.9,0.3-2.2c-0.1-0.4-0.3-0.6-0.5-0.7c-0.4-0.2-0.8-0.2-1.1-0.2c-0.4,0.1-0.8,0.4-1.3,0.9c0.1-0.7,0.2-1.3,0.3-1.9
		c0.1-0.5,0.2-1,0.4-1.4c0.1-0.4,0.4-0.6,0.6-0.8c0.3-0.2,0.6-0.3,1.1-0.3c0.6,0,1.1,0.1,1.7,0.3c0.5,0.2,1,0.5,1.5,1
		c0.4,0.5,0.8,1.1,1.1,1.8c0.3,0.8,0.5,1.7,0.6,2.9c3,1.1,4.9,2.2,5.8,3.2c0.9,1.1,0.9,2.4,0.1,4c-0.1,0.1-0.1,0.4-0.2,0.9
		c-0.1,0.4-0.2,1-0.2,1.6c-0.1,0.6-0.2,1.2-0.2,1.9c-0.1,0.7-0.1,1.3-0.2,1.9c1,0.1,1.8,0.2,2.5,0.4c0.7,0.2,1.3,0.5,1.8,0.9
		c0.5,0.4,0.9,0.9,1.2,1.6C496.6,63.4,496.8,64.2,497,65.3z M487,52.7c0.1-1.1-0.1-1.7-0.5-1.7c-0.4,0-0.9,0.2-1.6,0.7
		c-0.3,0.3-0.5,0.5-0.7,0.7c-0.2,0.2-0.4,0.5-0.6,0.8c-0.2,0.3-0.4,0.7-0.6,1.2c-0.2,0.5-0.5,1.2-0.8,2c-0.5,1.3-1.1,2.7-1.7,4.1
		c-0.6,1.4-1.3,2.8-2,4.4c0.2,0.8,0.5,1.4,0.8,2c0.3,0.6,0.7,1.1,1.1,1.5c0.4,0.4,0.8,0.8,1.1,1c0.4,0.2,0.6,0.4,0.9,0.5
		c0.4,0.1,0.7,0.1,0.9,0c0.3-0.1,0.6-0.4,0.8-1c0.3-0.6,0.6-1.4,0.9-2.5c0.3-1.1,0.7-2.5,1.1-4.4c-0.2-0.3-0.4-0.5-0.6-0.7
		c-0.2-0.2-0.4-0.5-0.6-0.7c-0.2-0.4-0.4-0.6-0.6-0.8c-0.2-0.2-0.5-0.4-0.7-0.7c0.5-0.1,1-0.1,1.5-0.1c0.5,0,1,0,1.5,0
		c0.1-0.9,0.1-2,0.2-3.1C486.9,54.9,486.9,53.8,487,52.7z"/>
	<path class="st0" d="M546.4,61.7c0.2,0.4,0.3,0.7,0.3,1s-0.2,0.5-0.6,0.7c-0.4,0.2-0.9,0.2-1.7,0.2s-1.8-0.1-3.2-0.3
		c-0.9-0.1-1.7-0.4-2.5-0.7c-0.8-0.4-1.6-1-2.5-1.9c-0.9-0.9-1.9-2.1-3-3.7c-1.1-1.6-2.4-3.6-4-6.1c-0.4-0.6-0.8-1.2-1.1-1.6
		c-0.4-0.4-0.8-0.8-1.4-1.1c-0.6-0.3-1.3-0.5-2.3-0.8c-0.9-0.2-2.2-0.5-3.7-0.8c-0.5,0.7-1.2,1.7-1.9,2.9c-0.7,1.2-1.4,2.4-1.9,3.6
		c1.8-0.3,3.2-0.6,4-0.9c0.8-0.3,1.4-0.5,1.5-0.7c0.3-0.4,0.7-0.5,1.3-0.4c0.6,0.1,1.5,0.6,2.8,1.4c0.5,0.4,0.9,0.7,1.1,1.2
		c0.2,0.4,0.3,0.8,0.3,1.2c0,0.4-0.1,0.7-0.3,1c-0.2,0.3-0.5,0.4-0.8,0.5c-0.4,0.1-0.8,0.1-1.1,0.2c-0.4,0.1-0.8,0.3-1.5,0.6
		c-1.7,0.9-3.1,1.5-4.2,2s-2,0.8-2.6,1.1c-0.7,0.2-1.2,0.3-1.6,0.3c-0.4,0-0.8,0-1.1-0.1c-0.3-0.1-0.6,0-1,0.2
		c-0.4,0.2-0.8,0.6-1.3,1.2c-0.2,0.3-0.2,0.6,0.2,0.8c0.4,0.3,0.9,0.3,1.5,0.2c2-0.4,3.5-0.8,4.8-1.1c1.2-0.3,2.2-0.6,2.9-0.8
		c0.7-0.2,1.2-0.5,1.6-0.7c0.3-0.2,0.5-0.5,0.7-0.7c0.1-0.3,0.3-0.5,0.6-0.6c0.3-0.1,0.5-0.2,0.8-0.3c0.3,0,0.5,0,0.7,0
		c0.2,0,0.4,0.1,0.4,0.3c0.1,0.3,0.4,0.5,0.9,0.8c0.4,0.2,0.7,0.5,1.1,0.9c0.4,0.4,0.6,0.8,0.7,1.1c0.2,0.5,0.2,1,0.1,1.3
		c-0.1,0.4-0.3,0.6-0.6,0.7c-1.7,0.6-2.9,1.4-3.6,2.4c1.5,0.4,2.8,0.9,4.1,1.5c1.3,0.7,2.2,1.4,2.7,2.3c0.2,0.3,0.3,0.6,0.3,1.2
		c0,0.5,0,1.1,0,1.7s-0.2,1.3-0.3,1.9c-0.2,0.7-0.4,1.2-0.6,1.8c-0.5,1-1.2,1.1-2.1,0.2c-0.2-0.2-0.5-0.6-0.8-1.2
		c-0.3-0.6-0.6-1.4-0.9-2.3c-1.3,0.2-2.4,0.3-3.3,0.5s-1.7,0.4-2.4,0.6c-0.7,0.2-1.3,0.5-1.9,0.8c-0.6,0.3-1.1,0.6-1.8,1.1
		c-0.7,0.5-1.3,0.8-1.8,0.9c-0.5,0-0.9-0.1-1.2-0.5c-0.4-0.4-0.8-0.9-1.1-1.5c-0.3-0.6-0.6-1.3-0.9-2.3c-0.1-0.4-0.1-0.9,0.1-1.5
		c0.2-0.5,0.6-0.9,1.2-1c0.2,0,0.5-0.2,0.8-0.4s0.7-0.5,1-0.7s0.6-0.6,0.9-0.9c0.3-0.3,0.5-0.6,0.6-0.9c-1.4,0.2-2.7,0-3.8-0.5
		s-1.9-1.4-2.4-2.7c-0.2-0.4-0.2-0.9-0.1-1.4c0.1-0.5,0.6-1.1,1.4-1.9c0.3-0.3,0.6-0.6,1.1-1c0.4-0.4,0.9-0.7,1.3-1.1s1-0.8,1.5-1.2
		c0.5-0.4,1-0.8,1.4-1.1c0.3-0.2,0.3-0.5,0-0.8c-0.1-0.2-0.2-0.4-0.3-0.5s-0.2-0.2-0.3-0.4c-0.1-0.1-0.3-0.2-0.5-0.3
		c-0.2-0.1-0.4-0.2-0.7-0.4c-1.4,2.9-2.9,5.4-4.3,7.3c-1.5,2-2.9,3.4-4.2,4.4c-0.5,0.4-0.9,0.6-1.2,0.8c-0.3,0.2-0.6,0.3-0.8,0.4
		c-0.2,0.1-0.4,0.1-0.6,0.1c-0.2,0-0.3-0.1-0.5-0.2c-1.4-0.7-1.7-1.4-0.8-2.1c0.6-0.4,1.2-0.8,1.8-1.3c0.6-0.5,1.1-1.1,1.7-1.8
		c0.5-0.7,1.1-1.6,1.7-2.6c0.6-1,1.3-2.3,2.1-3.7c0.6-1.2,1.2-2.4,1.9-3.6c0.6-1.2,1.3-2.3,1.8-3.4c0.6-1.1,1.1-2,1.6-2.9
		c0.5-0.8,0.9-1.5,1.2-2c0.4-0.7,0.8-1.3,1.2-1.8c0.3-0.5,0.6-0.9,0.9-1.3c0.3-0.4,0.6-0.7,0.9-1c0.3-0.3,0.6-0.6,1-0.9
		c0.5-0.4,0.6-1.1,0.4-1.8c-0.1-0.4-0.1-0.6,0.1-0.6c0.1-0.1,0.5,0,1,0.2c1.2,0.5,2.1,1,2.6,1.5c0.5,0.4,0.9,0.9,1.2,1.5
		c0.1,0.3,0.2,0.5,0.2,0.7c0,0.2-0.1,0.4-0.3,0.7c-0.2,0.3-0.5,0.6-1,1c-0.5,0.4-1.1,1-1.9,1.6c1.2,0.3,2.6,0.9,4.1,1.8
		c1.5,1,2.9,2.3,4.2,3.9c0.6,0.8,1.3,1.6,2.1,2.4c0.8,0.8,1.6,1.6,2.4,2.3c0.8,0.7,1.5,1.4,2.2,1.9c0.7,0.5,1.2,0.9,1.7,1.1
		c1.8,0.9,3.2,1.8,4.2,2.6C545.3,60.4,546,61.1,546.4,61.7z M526.4,70.3c-0.4-1.1-0.8-1.9-1-2.4c-0.3-0.5-0.5-0.9-0.8-1.3
		c-0.4,0.3-0.7,0.5-0.9,0.7c-0.3,0.2-0.5,0.5-0.8,0.8c-0.3,0.3-0.6,0.7-0.9,1.2s-0.8,1.1-1.3,1.8c0.1,0,0.3,0,0.6,0
		c0.2,0,0.6-0.1,1-0.1c0.4-0.1,1-0.1,1.7-0.2C524.6,70.6,525.4,70.4,526.4,70.3z"/>
</g>
<g>
	<path class="st0" d="M175,89.1l4.2,12h0l4.2-12h6v0.3h-2.2v16.4h2.2v0.3h-7.9v-0.3h2.2V89.4h0l-5.9,16.8h-0.4l-5.9-16.8h0v16.4h2.2
		v0.3h-4.8v-0.3h2.2V89.4h-2.2v-0.3H175z"/>
	<path class="st0" d="M201.4,106.4c-0.4,0.1-0.8,0.1-1.2,0.1c-0.8,0-1.4-0.1-1.8-0.4c-0.4-0.3-0.6-0.7-0.7-1.2h0
		c-0.3,0.6-0.6,1.1-1.1,1.3c-0.4,0.2-1.1,0.3-1.9,0.3c-0.4,0-0.8,0-1.2-0.1c-0.4-0.1-0.8-0.2-1.1-0.4s-0.6-0.4-0.8-0.7
		c-0.2-0.3-0.3-0.7-0.3-1.1c0-0.5,0.1-0.9,0.3-1.2c0.2-0.3,0.4-0.6,0.7-0.8s0.6-0.4,1-0.5s0.8-0.3,1.2-0.4c0.7-0.2,1.2-0.4,1.6-0.5
		c0.4-0.1,0.7-0.3,0.9-0.4c0.2-0.2,0.4-0.3,0.5-0.5c0.1-0.2,0.1-0.4,0.1-0.7v-1.5c0-0.4-0.1-0.8-0.3-1.2s-0.6-0.5-1.2-0.5
		c-0.4,0-0.7,0.1-1,0.3c-0.3,0.2-0.4,0.5-0.4,0.9c0,0,0,0.1,0,0.3c0,0.1,0,0.3,0,0.4c0,0.1,0,0.3,0,0.4s0,0.2,0,0.3
		c0,0.2-0.1,0.4-0.2,0.6c-0.1,0.1-0.2,0.2-0.4,0.3s-0.3,0.1-0.5,0.1c-0.2,0-0.3,0-0.4,0c-0.2,0-0.3,0-0.5,0c-0.2,0-0.3-0.1-0.4-0.2
		s-0.2-0.2-0.3-0.4s-0.1-0.4-0.1-0.6c0-0.4,0.1-0.8,0.3-1.1c0.2-0.3,0.5-0.6,0.9-0.8c0.4-0.2,0.8-0.4,1.3-0.5c0.5-0.1,1-0.2,1.5-0.2
		c0.6,0,1.2,0,1.7,0.1c0.5,0.1,1,0.3,1.4,0.5c0.4,0.3,0.7,0.6,0.9,1c0.2,0.4,0.3,1,0.3,1.7v6c0,0.3,0,0.6,0.1,0.8
		c0.1,0.2,0.3,0.3,0.7,0.3c0.2,0,0.4,0,0.5-0.1s0.3-0.2,0.4-0.3l0.2,0.2C202.2,106.1,201.9,106.3,201.4,106.4z M197.5,100.2
		c0,0.1-0.1,0.2-0.2,0.3s-0.2,0.2-0.5,0.3c-0.3,0.1-0.6,0.3-0.9,0.4c-0.3,0.1-0.6,0.3-0.8,0.5c-0.2,0.2-0.4,0.5-0.6,0.8
		c-0.2,0.3-0.2,0.7-0.2,1.2c0,0.2,0,0.4,0,0.7c0,0.3,0.1,0.5,0.2,0.7c0.1,0.2,0.3,0.4,0.5,0.6c0.2,0.2,0.5,0.3,0.9,0.3
		c0.2,0,0.4,0,0.6-0.1c0.2-0.1,0.4-0.2,0.5-0.4s0.3-0.5,0.4-0.8c0.1-0.3,0.1-0.7,0.1-1.2L197.5,100.2L197.5,100.2z"/>
	<path class="st0" d="M208.1,95.9v10h1.6v0.3h-6.1v-0.3h1.6v-9.6h-1.6v-0.3H208.1z M205.4,89.5c0.3-0.3,0.7-0.5,1.2-0.5
		s0.9,0.2,1.2,0.5c0.3,0.3,0.5,0.7,0.5,1.2c0,0.5-0.2,0.9-0.5,1.2s-0.7,0.5-1.2,0.5s-0.9-0.2-1.2-0.5s-0.5-0.7-0.5-1.2
		C204.9,90.2,205.1,89.8,205.4,89.5z"/>
	<path class="st0" d="M211.6,102.7c0.2,0.4,0.4,0.9,0.6,1.3c0.2,0.4,0.4,0.8,0.7,1.1c0.3,0.3,0.6,0.6,1,0.8s0.9,0.3,1.4,0.3
		c0.1,0,0.3,0,0.6,0s0.5-0.1,0.7-0.2c0.2-0.1,0.4-0.3,0.6-0.6s0.3-0.6,0.3-1.1c0-0.1,0-0.3-0.1-0.4c0-0.2-0.1-0.3-0.3-0.5
		s-0.3-0.3-0.6-0.5s-0.6-0.3-1-0.5l-1.9-0.7c-0.2-0.1-0.5-0.2-0.7-0.3c-0.3-0.1-0.5-0.3-0.7-0.5c-0.2-0.2-0.4-0.5-0.5-0.8
		c-0.1-0.3-0.2-0.7-0.2-1.1c0-0.5,0.1-0.9,0.3-1.3c0.2-0.4,0.5-0.8,0.8-1.1c0.3-0.3,0.8-0.6,1.2-0.7s1-0.3,1.6-0.3
		c0.3,0,0.6,0,0.9,0.1c0.3,0.1,0.5,0.1,0.7,0.2c0.2,0.1,0.4,0.1,0.6,0.2c0.2,0.1,0.3,0.1,0.4,0.1c0.2,0,0.3,0,0.3-0.1
		c0-0.1,0.1-0.1,0.1-0.2h0.3v2.9h-0.3c-0.2-0.4-0.3-0.8-0.5-1.1s-0.4-0.7-0.6-0.9c-0.2-0.3-0.5-0.5-0.9-0.6s-0.8-0.2-1.2-0.2
		c-0.5,0-1,0.1-1.5,0.4c-0.4,0.3-0.7,0.7-0.7,1.2c0,0.1,0,0.2,0,0.4c0,0.1,0.1,0.3,0.2,0.4c0.1,0.2,0.3,0.3,0.5,0.5
		c0.2,0.2,0.6,0.3,1,0.4l2,0.7c0.9,0.3,1.5,0.7,2,1.2c0.4,0.5,0.7,1.1,0.7,1.9c0,0.5-0.1,1-0.3,1.4c-0.2,0.4-0.5,0.8-0.9,1.1
		c-0.4,0.3-0.8,0.5-1.3,0.7s-1,0.2-1.5,0.2c-0.3,0-0.6,0-0.9-0.1c-0.3-0.1-0.7-0.1-1-0.2c-0.3-0.1-0.6-0.2-0.9-0.2
		c-0.3-0.1-0.5-0.1-0.6-0.1c-0.1,0-0.2,0-0.3,0.1s-0.1,0.1-0.2,0.3h-0.3v-3.5H211.6z"/>
	<path class="st0" d="M229.5,96c0.7,0.3,1.3,0.7,1.9,1.2c0.5,0.5,0.9,1.1,1.2,1.7s0.4,1.4,0.4,2.1c0,0.8-0.1,1.5-0.4,2.1
		c-0.3,0.7-0.7,1.2-1.2,1.7c-0.5,0.5-1.1,0.9-1.9,1.2c-0.7,0.3-1.5,0.4-2.3,0.4s-1.6-0.1-2.3-0.4c-0.7-0.3-1.3-0.7-1.9-1.2
		s-0.9-1.1-1.2-1.7c-0.3-0.7-0.4-1.4-0.4-2.1c0-0.7,0.1-1.4,0.4-2.1s0.7-1.2,1.2-1.7c0.5-0.5,1.1-0.9,1.9-1.2
		c0.7-0.3,1.5-0.4,2.3-0.4S228.8,95.7,229.5,96z M228.6,105.7c0.4-0.3,0.6-0.7,0.8-1.2c0.2-0.5,0.3-1,0.3-1.7s0.1-1.3,0.1-1.9
		c0-0.6,0-1.3-0.1-1.9c0-0.6-0.1-1.2-0.3-1.6c-0.2-0.5-0.4-0.9-0.8-1.2s-0.8-0.4-1.5-0.4s-1.1,0.1-1.5,0.4c-0.4,0.3-0.6,0.7-0.8,1.2
		c-0.2,0.5-0.3,1-0.3,1.6c0,0.6-0.1,1.2-0.1,1.9c0,0.6,0,1.3,0.1,1.9c0,0.6,0.1,1.2,0.3,1.7c0.2,0.5,0.4,0.9,0.8,1.2
		c0.4,0.3,0.8,0.4,1.5,0.4S228.3,106,228.6,105.7z"/>
	<path class="st0" d="M236.4,105.8v-9.6h-1.6v-0.3h4.5v2.4h0c0.1-0.1,0.2-0.4,0.3-0.7c0.2-0.3,0.4-0.6,0.7-0.9s0.7-0.5,1.2-0.8
		c0.5-0.2,1.1-0.3,1.8-0.3c1.1,0,1.9,0.3,2.5,0.9c0.6,0.6,0.9,1.4,0.9,2.5v6.8h1.6v0.3h-6v-0.3h1.5v-7.6c0-0.7-0.1-1.2-0.4-1.5
		c-0.3-0.3-0.6-0.5-1.1-0.5c-0.4,0-0.8,0.1-1.1,0.3c-0.4,0.2-0.7,0.5-0.9,0.8c-0.3,0.4-0.5,0.8-0.6,1.4s-0.2,1.2-0.2,1.9v5.1h1.5
		v0.3h-6v-0.3H236.4z"/>
	<path class="st0" d="M271.1,94c-0.2-0.5-0.4-1.1-0.6-1.7c-0.2-0.6-0.6-1.1-1-1.6c-0.4-0.5-0.9-0.9-1.5-1.2
		c-0.6-0.3-1.3-0.5-2.2-0.5c-1.2,0-2.1,0.2-2.8,0.6c-0.7,0.4-1.2,1-1.5,1.8c-0.3,0.8-0.6,1.7-0.7,2.7c-0.1,1.1-0.1,2.2-0.1,3.5
		c0,1.7,0.1,3,0.3,4.1c0.2,1.1,0.5,2,0.9,2.6s0.9,1.1,1.6,1.3c0.6,0.3,1.4,0.4,2.3,0.4c0.7,0,1.4-0.1,2-0.4s1.1-0.7,1.5-1.1
		c0.4-0.5,0.8-1,1.1-1.6c0.3-0.6,0.5-1.2,0.7-1.9h0.4v5.1h-0.4c-0.1-0.2-0.2-0.3-0.3-0.4c-0.1-0.1-0.3-0.1-0.5-0.1
		c-0.2,0-0.4,0-0.7,0.1c-0.3,0.1-0.7,0.2-1,0.3c-0.4,0.1-0.8,0.2-1.3,0.3s-1,0.1-1.5,0.1c-1.2,0-2.3-0.2-3.4-0.7
		c-1.1-0.5-2-1.1-2.9-1.9c-0.8-0.8-1.5-1.7-2-2.8s-0.7-2.2-0.7-3.5c0-1.4,0.3-2.6,0.8-3.7c0.6-1.1,1.3-2,2.1-2.8s1.8-1.4,2.9-1.8
		c1.1-0.4,2.1-0.6,3.1-0.6c0.5,0,1,0,1.4,0.1c0.4,0.1,0.8,0.2,1.2,0.3c0.4,0.1,0.7,0.2,1,0.3c0.3,0.1,0.6,0.1,0.8,0.1
		c0.2,0,0.4,0,0.5-0.1c0.1-0.1,0.2-0.2,0.2-0.4h0.4V94H271.1z"/>
	<path class="st0" d="M275.4,105.8V89.2h-1.6v-0.3h4.5v9.3h0c0.1-0.1,0.2-0.4,0.3-0.6c0.2-0.3,0.4-0.6,0.7-0.8
		c0.3-0.3,0.7-0.5,1.2-0.7c0.5-0.2,1.1-0.3,1.8-0.3c1.1,0,1.9,0.3,2.5,0.9s0.9,1.4,0.9,2.5v6.8h1.6v0.3h-6v-0.3h1.5v-7.6
		c0-0.7-0.1-1.2-0.4-1.5c-0.3-0.3-0.6-0.5-1.1-0.5c-0.4,0-0.8,0.1-1.1,0.3c-0.4,0.2-0.7,0.5-0.9,0.8c-0.3,0.4-0.5,0.8-0.6,1.4
		s-0.2,1.2-0.2,1.9v5.1h1.5v0.3h-6v-0.3H275.4z"/>
	<path class="st0" d="M293.5,95.9v10h1.6v0.3h-6.1v-0.3h1.6v-9.6h-1.6v-0.3H293.5z M290.8,89.5c0.3-0.3,0.7-0.5,1.2-0.5
		s0.9,0.2,1.2,0.5c0.3,0.3,0.5,0.7,0.5,1.2c0,0.5-0.2,0.9-0.5,1.2s-0.7,0.5-1.2,0.5s-0.9-0.2-1.2-0.5s-0.5-0.7-0.5-1.2
		C290.3,90.2,290.5,89.8,290.8,89.5z"/>
	<path class="st0" d="M298.2,105.8v-9.6h-1.6v-0.3h4.5v2.4h0c0.1-0.1,0.2-0.4,0.3-0.7c0.2-0.3,0.4-0.6,0.7-0.9s0.7-0.5,1.2-0.8
		c0.5-0.2,1.1-0.3,1.8-0.3c1.1,0,1.9,0.3,2.5,0.9c0.6,0.6,0.9,1.4,0.9,2.5v6.8h1.6v0.3h-6v-0.3h1.5v-7.6c0-0.7-0.1-1.2-0.4-1.5
		c-0.3-0.3-0.6-0.5-1.1-0.5c-0.4,0-0.8,0.1-1.1,0.3c-0.4,0.2-0.7,0.5-0.9,0.8c-0.3,0.4-0.5,0.8-0.6,1.4s-0.2,1.2-0.2,1.9v5.1h1.5
		v0.3h-6v-0.3H298.2z"/>
	<path class="st0" d="M314.8,101.2c0,0.6,0,1.2,0.1,1.7c0,0.6,0.2,1.1,0.4,1.6c0.2,0.5,0.5,0.9,0.9,1.2c0.4,0.3,1,0.5,1.7,0.5
		c0.6,0,1.2-0.1,1.6-0.4c0.4-0.2,0.8-0.5,1.1-0.8c0.3-0.3,0.5-0.6,0.6-0.9c0.1-0.3,0.2-0.5,0.2-0.7l0.3,0.1c-0.1,0.3-0.2,0.6-0.4,1
		c-0.2,0.3-0.5,0.7-0.8,1s-0.8,0.5-1.2,0.7c-0.5,0.2-1.1,0.3-1.8,0.3c-0.8,0-1.6-0.1-2.3-0.4c-0.7-0.2-1.3-0.6-1.9-1.1s-1-1-1.3-1.7
		c-0.3-0.7-0.5-1.5-0.5-2.3c0-0.7,0.1-1.4,0.4-2c0.3-0.7,0.7-1.2,1.2-1.7s1.1-0.9,1.8-1.2c0.7-0.3,1.4-0.5,2.2-0.5
		c0.6,0,1.1,0.1,1.7,0.3c0.6,0.2,1.1,0.4,1.5,0.8c0.4,0.4,0.8,0.8,1.1,1.4c0.3,0.6,0.4,1.3,0.4,2.1h-7.1V101.2z M318.7,98.2
		c0-0.2,0-0.4,0-0.6c0-0.3-0.1-0.5-0.2-0.8c-0.1-0.3-0.3-0.5-0.5-0.6c-0.2-0.2-0.5-0.3-0.9-0.3c-0.5,0-1,0.1-1.3,0.4
		c-0.3,0.3-0.5,0.6-0.7,1c-0.1,0.4-0.2,0.8-0.3,1.3s-0.1,0.9-0.1,1.3h3.8V98.2z"/>
	<path class="st0" d="M335.9,89.1l8,11.4h0V89.4h-2.2v-0.3h4.8v0.3h-2.2v16.8h-0.6l-10.8-15.4h0v15h2.2v0.3h-4.8v-0.3h2.2V89.4h-2.2
		v-0.3H335.9z"/>
	<path class="st0" d="M356.2,96c0.7,0.3,1.3,0.7,1.9,1.2c0.5,0.5,0.9,1.1,1.2,1.7s0.4,1.4,0.4,2.1c0,0.8-0.1,1.5-0.4,2.1
		c-0.3,0.7-0.7,1.2-1.2,1.7c-0.5,0.5-1.1,0.9-1.9,1.2c-0.7,0.3-1.5,0.4-2.3,0.4s-1.6-0.1-2.3-0.4c-0.7-0.3-1.3-0.7-1.9-1.2
		s-0.9-1.1-1.2-1.7c-0.3-0.7-0.4-1.4-0.4-2.1c0-0.7,0.1-1.4,0.4-2.1s0.7-1.2,1.2-1.7c0.5-0.5,1.1-0.9,1.9-1.2
		c0.7-0.3,1.5-0.4,2.3-0.4S355.5,95.7,356.2,96z M355.3,105.7c0.4-0.3,0.6-0.7,0.8-1.2c0.2-0.5,0.3-1,0.3-1.7s0.1-1.3,0.1-1.9
		c0-0.6,0-1.3-0.1-1.9c0-0.6-0.1-1.2-0.3-1.6c-0.2-0.5-0.4-0.9-0.8-1.2s-0.8-0.4-1.5-0.4s-1.1,0.1-1.5,0.4c-0.4,0.3-0.6,0.7-0.8,1.2
		c-0.2,0.5-0.3,1-0.3,1.6c0,0.6-0.1,1.2-0.1,1.9c0,0.6,0,1.3,0.1,1.9c0,0.6,0.1,1.2,0.3,1.7c0.2,0.5,0.4,0.9,0.8,1.2
		c0.4,0.3,0.8,0.4,1.5,0.4S355,106,355.3,105.7z"/>
	<path class="st0" d="M365.7,95.9v7.6c0,0.6,0.1,1.1,0.4,1.5s0.7,0.6,1.3,0.6c0.4,0,0.7-0.1,1-0.3c0.3-0.2,0.6-0.4,0.8-0.7
		c0.2-0.3,0.4-0.6,0.5-1c0.1-0.4,0.2-0.8,0.2-1.2v-6.2h-1.6v-0.3h4.5v10h1.6v0.3h-4.5v-1.9h0c-0.1,0.4-0.3,0.7-0.6,0.9
		c-0.3,0.3-0.5,0.5-0.9,0.7s-0.7,0.3-1,0.4s-0.7,0.1-1.1,0.1c-1.1,0-2-0.2-2.6-0.7c-0.6-0.5-0.9-1.3-0.9-2.5v-6.9h-1.6v-0.3H365.7z"
		/>
	<path class="st0" d="M381.2,95.9v0.3h-1.7l3,6.6l2.6-6.6h-1.8v-0.3h3.4v0.3h-1.1l-4.2,10.6H381l-4.8-10.6h-1.3v-0.3H381.2z"/>
	<path class="st0" d="M390.4,101.2c0,0.6,0,1.2,0.1,1.7c0,0.6,0.2,1.1,0.4,1.6c0.2,0.5,0.5,0.9,0.9,1.2c0.4,0.3,1,0.5,1.7,0.5
		c0.6,0,1.2-0.1,1.6-0.4c0.4-0.2,0.8-0.5,1.1-0.8c0.3-0.3,0.5-0.6,0.6-0.9c0.1-0.3,0.2-0.5,0.2-0.7l0.3,0.1c-0.1,0.3-0.2,0.6-0.4,1
		c-0.2,0.3-0.5,0.7-0.8,1s-0.8,0.5-1.2,0.7c-0.5,0.2-1.1,0.3-1.8,0.3c-0.8,0-1.6-0.1-2.3-0.4c-0.7-0.2-1.3-0.6-1.9-1.1s-1-1-1.3-1.7
		c-0.3-0.7-0.5-1.5-0.5-2.3c0-0.7,0.1-1.4,0.4-2c0.3-0.7,0.7-1.2,1.2-1.7s1.1-0.9,1.8-1.2c0.7-0.3,1.4-0.5,2.2-0.5
		c0.6,0,1.1,0.1,1.7,0.3c0.6,0.2,1.1,0.4,1.5,0.8c0.4,0.4,0.8,0.8,1.1,1.4c0.3,0.6,0.4,1.3,0.4,2.1h-7.1V101.2z M394.2,98.2
		c0-0.2,0-0.4,0-0.6c0-0.3-0.1-0.5-0.2-0.8c-0.1-0.3-0.3-0.5-0.5-0.6c-0.2-0.2-0.5-0.3-0.9-0.3c-0.5,0-1,0.1-1.3,0.4
		c-0.3,0.3-0.5,0.6-0.7,1c-0.1,0.4-0.2,0.8-0.3,1.3s-0.1,0.9-0.1,1.3h3.8V98.2z"/>
	<path class="st0" d="M403.7,88.8v17h1.6v0.3h-6.1v-0.3h1.6V89.2h-1.6v-0.3H403.7z"/>
	<path class="st0" d="M411.3,88.8v17h1.6v0.3h-6.1v-0.3h1.6V89.2h-1.6v-0.3H411.3z"/>
	<path class="st0" d="M417.5,101.2c0,0.6,0,1.2,0.1,1.7c0,0.6,0.2,1.1,0.4,1.6c0.2,0.5,0.5,0.9,0.9,1.2c0.4,0.3,1,0.5,1.7,0.5
		c0.6,0,1.2-0.1,1.6-0.4c0.4-0.2,0.8-0.5,1.1-0.8c0.3-0.3,0.5-0.6,0.6-0.9c0.1-0.3,0.2-0.5,0.2-0.7l0.3,0.1c-0.1,0.3-0.2,0.6-0.4,1
		c-0.2,0.3-0.5,0.7-0.8,1s-0.8,0.5-1.2,0.7c-0.5,0.2-1.1,0.3-1.8,0.3c-0.8,0-1.6-0.1-2.3-0.4c-0.7-0.2-1.3-0.6-1.9-1.1s-1-1-1.3-1.7
		c-0.3-0.7-0.5-1.5-0.5-2.3c0-0.7,0.1-1.4,0.4-2c0.3-0.7,0.7-1.2,1.2-1.7s1.1-0.9,1.8-1.2c0.7-0.3,1.4-0.5,2.2-0.5
		c0.6,0,1.1,0.1,1.7,0.3c0.6,0.2,1.1,0.4,1.5,0.8c0.4,0.4,0.8,0.8,1.1,1.4c0.3,0.6,0.4,1.3,0.4,2.1h-7.1V101.2z M421.4,98.2
		c0-0.2,0-0.4,0-0.6c0-0.3-0.1-0.5-0.2-0.8c-0.1-0.3-0.3-0.5-0.5-0.6c-0.2-0.2-0.5-0.3-0.9-0.3c-0.5,0-1,0.1-1.3,0.4
		c-0.3,0.3-0.5,0.6-0.7,1c-0.1,0.4-0.2,0.8-0.3,1.3s-0.1,0.9-0.1,1.3h3.8V98.2z"/>
	<path class="st0" d="M433.5,105.8l7.2-17.4h0.6l7.6,17.4h2.1v0.3h-8.1v-0.3h2.2l-2.8-6.4h-5.8l-2.7,6.4h2.1v0.3h-4.5v-0.3H433.5z
		 M436.7,99h5.5l-2.8-6.6L436.7,99z"/>
	<path class="st0" d="M463.8,112.5v0.3h-6.1v-0.3h1.6v-8.1h0c-0.2,0.6-0.6,1-1,1.4c-0.4,0.4-1,0.6-1.8,0.6c-0.8,0-1.5-0.2-2.1-0.5
		s-1.2-0.7-1.6-1.2s-0.8-1.1-1.1-1.7s-0.4-1.3-0.4-2.1c0-0.6,0.1-1.2,0.3-1.8c0.2-0.6,0.5-1.2,0.9-1.8c0.4-0.5,1-1,1.6-1.4
		s1.4-0.5,2.4-0.5c1.4,0,2.3,0.7,2.8,2.1h0v-1.8h4.5v0.3h-1.6v16.3H463.8z M459.2,99.3c-0.1-0.6-0.2-1.2-0.3-1.7s-0.4-0.9-0.8-1.3
		c-0.4-0.3-0.8-0.5-1.4-0.5c-0.4,0-0.7,0.1-1,0.3c-0.3,0.2-0.5,0.5-0.7,0.9c-0.2,0.4-0.3,0.9-0.4,1.6c-0.1,0.7-0.1,1.5-0.1,2.4
		c0,0.8,0,1.5,0.1,2.1s0.1,1.2,0.3,1.6s0.3,0.8,0.6,1c0.3,0.2,0.6,0.4,1.1,0.4c0.7,0,1.2-0.2,1.6-0.5s0.7-0.8,0.9-1.3
		c0.2-0.5,0.3-1.1,0.3-1.7c0-0.6,0.1-1.1,0.1-1.6C459.3,100.5,459.3,99.9,459.2,99.3z"/>
	<path class="st0" d="M469.7,95.9v7.6c0,0.6,0.1,1.1,0.4,1.5s0.7,0.6,1.3,0.6c0.4,0,0.7-0.1,1-0.3c0.3-0.2,0.6-0.4,0.8-0.7
		c0.2-0.3,0.4-0.6,0.5-1c0.1-0.4,0.2-0.8,0.2-1.2v-6.2h-1.6v-0.3h4.5v10h1.6v0.3h-4.5v-1.9h0c-0.1,0.4-0.3,0.7-0.6,0.9
		c-0.3,0.3-0.5,0.5-0.9,0.7s-0.7,0.3-1,0.4s-0.7,0.1-1.1,0.1c-1.1,0-2-0.2-2.6-0.7c-0.6-0.5-0.9-1.3-0.9-2.5v-6.9h-1.6v-0.3H469.7z"
		/>
	<path class="st0" d="M484.6,95.9v10h1.6v0.3h-6.1v-0.3h1.6v-9.6h-1.6v-0.3H484.6z M482,89.5c0.3-0.3,0.7-0.5,1.2-0.5
		s0.9,0.2,1.2,0.5c0.3,0.3,0.5,0.7,0.5,1.2c0,0.5-0.2,0.9-0.5,1.2s-0.7,0.5-1.2,0.5s-0.9-0.2-1.2-0.5s-0.5-0.7-0.5-1.2
		C481.5,90.2,481.6,89.8,482,89.5z"/>
	<path class="st0" d="M489.9,93c0.2,0.1,0.5,0.1,0.7,0.1c0.2,0,0.5,0,0.7-0.1c0.2-0.1,0.5-0.1,0.7-0.2v3.1h2.8v0.3h-2.8v8
		c0,0.2,0,0.5,0,0.7c0,0.2,0.1,0.4,0.2,0.6s0.2,0.3,0.4,0.4c0.2,0.1,0.4,0.1,0.7,0.1c0.3,0,0.6-0.1,0.8-0.2c0.2-0.1,0.4-0.3,0.6-0.5
		c0.2-0.2,0.3-0.4,0.4-0.7c0.1-0.3,0.2-0.5,0.3-0.7l0.4,0.1c-0.1,0.5-0.3,1-0.5,1.3c-0.2,0.3-0.5,0.6-0.8,0.8
		c-0.3,0.2-0.6,0.3-0.9,0.3c-0.3,0.1-0.7,0.1-1,0.1c-0.8,0-1.5-0.1-1.9-0.3c-0.5-0.2-0.8-0.4-1-0.7c-0.2-0.3-0.3-0.6-0.4-0.9
		s0-0.6,0-0.9v-7.4h-1.6v-0.3h1.6v-3.1C489.4,92.9,489.7,92.9,489.9,93z"/>
	<path class="st0" d="M506.9,106.4c-0.4,0.1-0.8,0.1-1.2,0.1c-0.8,0-1.4-0.1-1.8-0.4c-0.4-0.3-0.6-0.7-0.7-1.2h0
		c-0.3,0.6-0.6,1.1-1.1,1.3c-0.4,0.2-1.1,0.3-1.9,0.3c-0.4,0-0.8,0-1.2-0.1c-0.4-0.1-0.8-0.2-1.1-0.4s-0.6-0.4-0.8-0.7
		c-0.2-0.3-0.3-0.7-0.3-1.1c0-0.5,0.1-0.9,0.3-1.2c0.2-0.3,0.4-0.6,0.7-0.8s0.6-0.4,1-0.5s0.8-0.3,1.2-0.4c0.7-0.2,1.2-0.4,1.6-0.5
		c0.4-0.1,0.7-0.3,0.9-0.4c0.2-0.2,0.4-0.3,0.5-0.5c0.1-0.2,0.1-0.4,0.1-0.7v-1.5c0-0.4-0.1-0.8-0.3-1.2s-0.6-0.5-1.2-0.5
		c-0.4,0-0.7,0.1-1,0.3c-0.3,0.2-0.4,0.5-0.4,0.9c0,0,0,0.1,0,0.3c0,0.1,0,0.3,0,0.4c0,0.1,0,0.3,0,0.4s0,0.2,0,0.3
		c0,0.2-0.1,0.4-0.2,0.6c-0.1,0.1-0.2,0.2-0.4,0.3s-0.3,0.1-0.5,0.1c-0.2,0-0.3,0-0.4,0c-0.2,0-0.3,0-0.5,0c-0.2,0-0.3-0.1-0.4-0.2
		s-0.2-0.2-0.3-0.4s-0.1-0.4-0.1-0.6c0-0.4,0.1-0.8,0.3-1.1c0.2-0.3,0.5-0.6,0.9-0.8c0.4-0.2,0.8-0.4,1.3-0.5c0.5-0.1,1-0.2,1.5-0.2
		c0.6,0,1.2,0,1.7,0.1c0.5,0.1,1,0.3,1.4,0.5c0.4,0.3,0.7,0.6,0.9,1c0.2,0.4,0.3,1,0.3,1.7v6c0,0.3,0,0.6,0.1,0.8
		c0.1,0.2,0.3,0.3,0.7,0.3c0.2,0,0.4,0,0.5-0.1s0.3-0.2,0.4-0.3l0.2,0.2C507.6,106.1,507.3,106.3,506.9,106.4z M502.9,100.2
		c0,0.1-0.1,0.2-0.2,0.3s-0.2,0.2-0.5,0.3c-0.3,0.1-0.6,0.3-0.9,0.4c-0.3,0.1-0.6,0.3-0.8,0.5c-0.2,0.2-0.4,0.5-0.6,0.8
		c-0.2,0.3-0.2,0.7-0.2,1.2c0,0.2,0,0.4,0,0.7c0,0.3,0.1,0.5,0.2,0.7c0.1,0.2,0.3,0.4,0.5,0.6c0.2,0.2,0.5,0.3,0.9,0.3
		c0.2,0,0.4,0,0.6-0.1c0.2-0.1,0.4-0.2,0.5-0.4s0.3-0.5,0.4-0.8c0.1-0.3,0.1-0.7,0.1-1.2L502.9,100.2L502.9,100.2z"/>
	<path class="st0" d="M513.5,95.9v10h1.6v0.3H509v-0.3h1.6v-9.6H509v-0.3H513.5z M510.9,89.5c0.3-0.3,0.7-0.5,1.2-0.5
		s0.9,0.2,1.2,0.5c0.3,0.3,0.5,0.7,0.5,1.2c0,0.5-0.2,0.9-0.5,1.2s-0.7,0.5-1.2,0.5s-0.9-0.2-1.2-0.5s-0.5-0.7-0.5-1.2
		C510.3,90.2,510.5,89.8,510.9,89.5z"/>
	<path class="st0" d="M518.3,105.8v-9.6h-1.6v-0.3h4.5v2.4h0c0.1-0.1,0.2-0.4,0.3-0.7c0.2-0.3,0.4-0.6,0.7-0.9s0.7-0.5,1.2-0.8
		c0.5-0.2,1.1-0.3,1.8-0.3c1.1,0,1.9,0.3,2.5,0.9c0.6,0.6,0.9,1.4,0.9,2.5v6.8h1.6v0.3h-6v-0.3h1.5v-7.6c0-0.7-0.1-1.2-0.4-1.5
		c-0.3-0.3-0.6-0.5-1.1-0.5c-0.4,0-0.8,0.1-1.1,0.3c-0.4,0.2-0.7,0.5-0.9,0.8c-0.3,0.4-0.5,0.8-0.6,1.4s-0.2,1.2-0.2,1.9v5.1h1.5
		v0.3h-6v-0.3H518.3z"/>
	<path class="st0" d="M534.9,101.2c0,0.6,0,1.2,0.1,1.7c0,0.6,0.2,1.1,0.4,1.6c0.2,0.5,0.5,0.9,0.9,1.2c0.4,0.3,1,0.5,1.7,0.5
		c0.6,0,1.2-0.1,1.6-0.4c0.4-0.2,0.8-0.5,1.1-0.8c0.3-0.3,0.5-0.6,0.6-0.9c0.1-0.3,0.2-0.5,0.2-0.7l0.3,0.1c-0.1,0.3-0.2,0.6-0.4,1
		c-0.2,0.3-0.5,0.7-0.8,1s-0.8,0.5-1.2,0.7c-0.5,0.2-1.1,0.3-1.8,0.3c-0.8,0-1.6-0.1-2.3-0.4c-0.7-0.2-1.3-0.6-1.9-1.1s-1-1-1.3-1.7
		c-0.3-0.7-0.5-1.5-0.5-2.3c0-0.7,0.1-1.4,0.4-2c0.3-0.7,0.7-1.2,1.2-1.7s1.1-0.9,1.8-1.2c0.7-0.3,1.4-0.5,2.2-0.5
		c0.6,0,1.1,0.1,1.7,0.3c0.6,0.2,1.1,0.4,1.5,0.8c0.4,0.4,0.8,0.8,1.1,1.4c0.3,0.6,0.4,1.3,0.4,2.1h-7.1V101.2z M538.7,98.2
		c0-0.2,0-0.4,0-0.6c0-0.3-0.1-0.5-0.2-0.8c-0.1-0.3-0.3-0.5-0.5-0.6c-0.2-0.2-0.5-0.3-0.9-0.3c-0.5,0-1,0.1-1.3,0.4
		c-0.3,0.3-0.5,0.6-0.7,1c-0.1,0.4-0.2,0.8-0.3,1.3s-0.1,0.9-0.1,1.3h3.8V98.2z"/>
</g>
<path class="st1" d="M167.7,42.7"/>
<path class="st2" d="M535.1,46.8c-0.1,0-0.3,0-0.4,0C534.8,46.9,535,46.8,535.1,46.8z"/>
<path class="st2" d="M551.6,49.3c-0.1,0-0.3,0-0.4,0C551.3,49.4,551.5,49.3,551.6,49.3z"/>
<g>
	<path class="st3" d="M125.8,33.1v18c0,1.3-1.1,2.4-2.4,2.4h-0.1c-1.3,0-2.4-1.1-2.4-2.4V30.3c0-0.4,0.1-0.7,0.2-1
		c-1.8-1.3-3.7-2.6-5.7-3.7V44c0,0.1,0,0.1,0,0.2c0,0.1,0,0.3,0,0.4c0,1.4-1.1,2.5-2.5,2.5h-7.5v44.3c0,1.1-0.7,2.2-1.8,2.5
		c-1.6,0.4-3.1-0.8-3.1-2.4V47h-3c-1.1,0-2.2-0.7-2.5-1.8c-0.4-1.6,0.8-3.1,2.4-3.1h3v-8.7h-3c-1.1,0-2.2-0.7-2.5-1.8
		c-0.4-1.6,0.8-3.1,2.4-3.1h5.5c0,0,0,0,0,0c0,0,0,0,0,0c1.4,0,2.5,1.1,2.5,2.5v11.1h5v-19c-6.6-2.9-13.9-4.5-21.6-4.5
		c-30.4,0-54.7,25.1-55,56c-0.1,11.9,4.2,22.7,6.9,28.1c3.2,1.9,7,2.5,11.4,1.3c1.5-0.4,11.1-6.8,3.7-14c-2.1-2-5.7-1.5-7.6-0.1
		c-1,0.7-2.2,2.5-1.7,3.7c1.4,3.5,4.2,0.4,5.5,0.8c1.3,0.4,2.3,1.8,1.1,3.6c-1.3,1.8-8.5,4-10.5-3.2c-2.2-7.9,9-13.8,16.5-8.3
		c5.3,4,4.5,11.3,3.4,14.2c-0.6,1.5-5.5,9.3-17.4,8.5c1,1,1.4,1.6,1.8,2.1c10.8,12,25.4,19.3,42,19.3c30.4,0,55-25.1,55-56
		C144,58.2,137,43.4,125.8,33.1z M129.6,68.2h-3.8v8.7c0,0.3-0.1,0.5-0.1,0.7v0.3c0,1.2-1,2.1-2.1,2.1h-10.8c-1.2,0-2.1-1-2.1-2.1
		v-0.7c0-1.2,1-2.1,2.1-2.1h8.1v-7h-8c-1.2,0-2.1-1-2.1-2.1v-0.7c0-1.2,1-2.1,2.1-2.1h8v-4.3c0-1.3,1.1-2.4,2.4-2.4h0
		c1.3,0,2.4,1.1,2.4,2.4v4.3h3.8c1.2,0,2.1,1,2.1,2.1v0.7C131.7,67.2,130.8,68.2,129.6,68.2z"/>
	<path class="st3" d="M40.8,102.8C34.2,98.9,30.3,89.7,29,82c-0.5-3.2-0.9-7-1-10c-0.3-29,19-48.1,33.8-54.2
		c16.4-6.8,36.1-4.3,42.8-1.3c1.9,0.8,4,1.5,6.1,2.1l-0.1,4.6c3.6,1.5,3.6,1.6,4.9,2.4c0-0.7,0.1-6,0.1-6c2.2,0.4,4.4,0.7,6.2,0.9
		c4.8,0.5,12.5-3.1,13.9-4.4c1.2-1.1,3.2-3.9,2.9-6.3c0-0.7-0.1-1.5-0.3-2.2c-0.6-2.5-4.3-2.8-4.5-0.5c-0.1-0.1,0,0.1,0,0.6
		c0,0.1,0,0.1,0,0.2c0,0,0,0.1,0.1,0.2c0.1,1.6-1.3,5.2-7.6,6.6C117,16,106,11.3,106,11.3s-16.6-5.2-36-0.7c0,0-24.2,3.3-38,28.3
		c-6.1,11-8.6,22-9,31.8c-0.5,11.7,3.8,20.8,3.8,20.8c0,0.4,6.4,16.9,17.9,17.8c0.2,0,0.3,0,0.5,0c-0.5-0.5-1.3-1.5-2.4-3.1
		C42.4,105.7,41.7,104.5,40.8,102.8z"/>
</g>
</svg>
